<mxfile host="app.diagrams.net" modified="2024-04-12T07:57:46.003Z" agent="Mozilla/5.0 (Windows NT 10.0; Win64; x64) AppleWebKit/537.36 (KHTML, like Gecko) Chrome/123.0.0.0 Safari/537.36" etag="Drg3w0jQPyKZYljdICyd" version="24.2.3" type="device" pages="3">
  <diagram id="n7PNBDBq7i1voLU_zFln" name="Page-1">
    <mxGraphModel dx="1701" dy="460" grid="1" gridSize="10" guides="1" tooltips="1" connect="1" arrows="1" fold="1" page="1" pageScale="1" pageWidth="827" pageHeight="1169" math="0" shadow="0">
      <root>
        <mxCell id="0" />
        <mxCell id="1" parent="0" />
        <mxCell id="yixtAha1rN_RMdMo9tzF-1" value="Twitter Design&lt;div&gt;&lt;span style=&quot;white-space: pre;&quot;&gt;&#x9;&lt;/span&gt;&lt;br&gt;&lt;/div&gt;" style="text;strokeColor=none;align=center;fillColor=none;html=1;verticalAlign=middle;whiteSpace=wrap;rounded=0;" vertex="1" parent="1">
          <mxGeometry x="280" y="20" width="190" height="80" as="geometry" />
        </mxCell>
        <mxCell id="yixtAha1rN_RMdMo9tzF-2" value="&lt;b&gt;Functional Requirements&lt;/b&gt;&lt;div&gt;&lt;span style=&quot;white-space: pre;&quot;&gt;&#x9;&lt;/span&gt;&lt;span style=&quot;white-space: pre;&quot;&gt;&#x9;&lt;/span&gt;&lt;br&gt;&lt;/div&gt;" style="text;html=1;align=center;verticalAlign=middle;resizable=0;points=[];autosize=1;strokeColor=none;fillColor=none;" vertex="1" parent="1">
          <mxGeometry x="300" y="100" width="170" height="40" as="geometry" />
        </mxCell>
        <mxCell id="yixtAha1rN_RMdMo9tzF-3" value="1. User should be able to log in and sign up(for new users)&lt;div&gt;&lt;br&gt;&lt;/div&gt;" style="text;html=1;align=center;verticalAlign=middle;resizable=0;points=[];autosize=1;strokeColor=none;fillColor=none;" vertex="1" parent="1">
          <mxGeometry x="40" y="160" width="330" height="40" as="geometry" />
        </mxCell>
        <mxCell id="yixtAha1rN_RMdMo9tzF-4" value="&amp;nbsp; 2. User can post tweets ( Img, video, text, e.t,c)&amp;nbsp;&lt;div&gt;&lt;br&gt;&lt;/div&gt;" style="text;html=1;align=center;verticalAlign=middle;resizable=0;points=[];autosize=1;strokeColor=none;fillColor=none;" vertex="1" parent="1">
          <mxGeometry x="40" y="200" width="280" height="40" as="geometry" />
        </mxCell>
        <mxCell id="yixtAha1rN_RMdMo9tzF-5" value="3. User should be able to follow and unfollow&lt;div&gt;&lt;br&gt;&lt;/div&gt;" style="text;html=1;align=center;verticalAlign=middle;resizable=0;points=[];autosize=1;strokeColor=none;fillColor=none;" vertex="1" parent="1">
          <mxGeometry x="40" y="240" width="260" height="40" as="geometry" />
        </mxCell>
        <mxCell id="yixtAha1rN_RMdMo9tzF-6" value="4. User should be able to watch curated content based on preferences or from followed members&lt;div&gt;&amp;nbsp;&lt;/div&gt;" style="text;html=1;align=center;verticalAlign=middle;resizable=0;points=[];autosize=1;strokeColor=none;fillColor=none;" vertex="1" parent="1">
          <mxGeometry x="40" y="280" width="540" height="40" as="geometry" />
        </mxCell>
        <mxCell id="yixtAha1rN_RMdMo9tzF-7" value="5. User can update the location&lt;span style=&quot;white-space: pre;&quot;&gt;&#x9;&lt;/span&gt;" style="text;html=1;align=center;verticalAlign=middle;resizable=0;points=[];autosize=1;strokeColor=none;fillColor=none;" vertex="1" parent="1">
          <mxGeometry x="25" y="320" width="210" height="30" as="geometry" />
        </mxCell>
        <mxCell id="yixtAha1rN_RMdMo9tzF-8" value="6. User can be able to tweet or retweet any post.&lt;span style=&quot;background-color: initial;&quot;&gt;&amp;nbsp;&lt;/span&gt;" style="text;html=1;align=center;verticalAlign=middle;resizable=0;points=[];autosize=1;strokeColor=none;fillColor=none;" vertex="1" parent="1">
          <mxGeometry x="40" y="360" width="280" height="30" as="geometry" />
        </mxCell>
        <mxCell id="yixtAha1rN_RMdMo9tzF-10" value="&lt;b&gt;Non Functional Requirements&lt;/b&gt;&lt;div&gt;&lt;br&gt;&lt;/div&gt;" style="text;html=1;align=center;verticalAlign=middle;resizable=0;points=[];autosize=1;strokeColor=none;fillColor=none;" vertex="1" parent="1">
          <mxGeometry x="290" y="430" width="190" height="40" as="geometry" />
        </mxCell>
        <mxCell id="yixtAha1rN_RMdMo9tzF-11" value="1. The system should be scalable and available." style="text;html=1;align=center;verticalAlign=middle;resizable=0;points=[];autosize=1;strokeColor=none;fillColor=none;" vertex="1" parent="1">
          <mxGeometry x="45" y="490" width="280" height="30" as="geometry" />
        </mxCell>
        <mxCell id="yixtAha1rN_RMdMo9tzF-13" value="2. The system should maintain low latency." style="text;html=1;align=center;verticalAlign=middle;resizable=0;points=[];autosize=1;strokeColor=none;fillColor=none;" vertex="1" parent="1">
          <mxGeometry x="45" y="530" width="250" height="30" as="geometry" />
        </mxCell>
        <mxCell id="WTqV7R1DL-t0mRWmWpjP-1" value="&lt;b&gt;ESTIMATIONS&lt;/b&gt;&lt;div&gt;&lt;span style=&quot;white-space: pre;&quot;&gt;&#x9;&lt;/span&gt;&lt;br&gt;&lt;/div&gt;" style="text;html=1;align=center;verticalAlign=middle;resizable=0;points=[];autosize=1;strokeColor=none;fillColor=none;" vertex="1" parent="1">
          <mxGeometry x="280" y="600" width="100" height="40" as="geometry" />
        </mxCell>
        <mxCell id="WTqV7R1DL-t0mRWmWpjP-2" value="2 billion users&lt;div&gt;10 million active users daily&lt;/div&gt;&lt;div&gt;10 tweets per day&lt;/div&gt;" style="text;html=1;align=center;verticalAlign=middle;resizable=0;points=[];autosize=1;strokeColor=none;fillColor=none;" vertex="1" parent="1">
          <mxGeometry x="110" y="680" width="170" height="60" as="geometry" />
        </mxCell>
        <mxCell id="WTqV7R1DL-t0mRWmWpjP-4" value="10m*10 = 100m tweets per day" style="text;html=1;align=center;verticalAlign=middle;resizable=0;points=[];autosize=1;strokeColor=none;fillColor=none;" vertex="1" parent="1">
          <mxGeometry x="90" y="740" width="190" height="30" as="geometry" />
        </mxCell>
        <mxCell id="WTqV7R1DL-t0mRWmWpjP-5" value="&lt;b&gt;Traffic Estimations&lt;/b&gt;&lt;div&gt;&lt;br&gt;&lt;/div&gt;" style="text;html=1;align=center;verticalAlign=middle;resizable=0;points=[];autosize=1;strokeColor=none;fillColor=none;" vertex="1" parent="1">
          <mxGeometry x="40" y="630" width="130" height="40" as="geometry" />
        </mxCell>
        <mxCell id="WTqV7R1DL-t0mRWmWpjP-6" value="&lt;b&gt;Storage Estimations&lt;/b&gt;" style="text;html=1;align=center;verticalAlign=middle;resizable=0;points=[];autosize=1;strokeColor=none;fillColor=none;" vertex="1" parent="1">
          <mxGeometry x="25" y="860" width="140" height="30" as="geometry" />
        </mxCell>
        <mxCell id="WTqV7R1DL-t0mRWmWpjP-7" value="100M/24*60*60&lt;span style=&quot;white-space: pre;&quot;&gt;&#x9;&lt;/span&gt;~= 1000Tweets per second" style="text;html=1;align=center;verticalAlign=middle;resizable=0;points=[];autosize=1;strokeColor=none;fillColor=none;" vertex="1" parent="1">
          <mxGeometry x="70" y="780" width="270" height="30" as="geometry" />
        </mxCell>
        <mxCell id="WTqV7R1DL-t0mRWmWpjP-8" value="1000 Tweets&amp;nbsp; = 80% text + 20% media&lt;div&gt;&lt;br&gt;&lt;/div&gt;" style="text;html=1;align=center;verticalAlign=middle;resizable=0;points=[];autosize=1;strokeColor=none;fillColor=none;" vertex="1" parent="1">
          <mxGeometry x="90" y="903" width="230" height="40" as="geometry" />
        </mxCell>
        <mxCell id="WTqV7R1DL-t0mRWmWpjP-9" value="each tweet 100 bytes ~~ 100m*100 = 10GBytes of data per day&lt;div&gt;~~ 1000 tweets = 1000*100 = 100kb per sec&lt;span style=&quot;background-color: initial;&quot;&gt;&amp;nbsp;&lt;/span&gt;&lt;/div&gt;" style="text;html=1;align=center;verticalAlign=middle;resizable=0;points=[];autosize=1;strokeColor=none;fillColor=none;" vertex="1" parent="1">
          <mxGeometry x="69" y="938" width="360" height="40" as="geometry" />
        </mxCell>
        <mxCell id="WTqV7R1DL-t0mRWmWpjP-12" value="1. each image = 1000 bytes&lt;div&gt;&lt;br&gt;&lt;/div&gt;" style="text;html=1;align=center;verticalAlign=middle;resizable=0;points=[];autosize=1;strokeColor=none;fillColor=none;" vertex="1" parent="1">
          <mxGeometry x="-15" y="990" width="170" height="40" as="geometry" />
        </mxCell>
        <mxCell id="WTqV7R1DL-t0mRWmWpjP-13" value="10% of 10m == 1m&amp;nbsp;" style="text;html=1;align=center;verticalAlign=middle;resizable=0;points=[];autosize=1;strokeColor=none;fillColor=none;" vertex="1" parent="1">
          <mxGeometry x="155" y="993" width="130" height="30" as="geometry" />
        </mxCell>
        <mxCell id="WTqV7R1DL-t0mRWmWpjP-14" value="1m * 1000bytes *10 ==10GB PER DAY&lt;div&gt;&lt;br&gt;&lt;/div&gt;" style="text;html=1;align=center;verticalAlign=middle;resizable=0;points=[];autosize=1;strokeColor=none;fillColor=none;" vertex="1" parent="1">
          <mxGeometry x="299" y="1000" width="230" height="40" as="geometry" />
        </mxCell>
        <mxCell id="WTqV7R1DL-t0mRWmWpjP-16" value="10kb&amp;nbsp; per sec" style="text;html=1;align=center;verticalAlign=middle;resizable=0;points=[];autosize=1;strokeColor=none;fillColor=none;" vertex="1" parent="1">
          <mxGeometry x="370" y="1023" width="100" height="30" as="geometry" />
        </mxCell>
        <mxCell id="WTqV7R1DL-t0mRWmWpjP-17" value="2. each video = 10mb" style="text;html=1;align=center;verticalAlign=middle;resizable=0;points=[];autosize=1;strokeColor=none;fillColor=none;" vertex="1" parent="1">
          <mxGeometry x="-15" y="1060" width="140" height="30" as="geometry" />
        </mxCell>
        <mxCell id="ABjKnJYodOCR_c2L7wGN-1" value="10% of 10m ==1m" style="text;html=1;align=center;verticalAlign=middle;resizable=0;points=[];autosize=1;strokeColor=none;fillColor=none;" vertex="1" parent="1">
          <mxGeometry x="155" y="1060" width="120" height="30" as="geometry" />
        </mxCell>
        <mxCell id="ABjKnJYodOCR_c2L7wGN-2" value="1m*10mb *10 == 10tb per day" style="text;html=1;align=center;verticalAlign=middle;resizable=0;points=[];autosize=1;strokeColor=none;fillColor=none;" vertex="1" parent="1">
          <mxGeometry x="310" y="1053" width="180" height="30" as="geometry" />
        </mxCell>
        <mxCell id="ABjKnJYodOCR_c2L7wGN-3" value="10gb per sec" style="text;html=1;align=center;verticalAlign=middle;resizable=0;points=[];autosize=1;strokeColor=none;fillColor=none;" vertex="1" parent="1">
          <mxGeometry x="335" y="1078" width="90" height="30" as="geometry" />
        </mxCell>
        <mxCell id="d1XDg0m2k48VNrnfPDKk-2" value="Total storage needed per day&lt;span style=&quot;white-space: pre;&quot;&gt;&#x9;&lt;/span&gt;" style="text;html=1;align=center;verticalAlign=middle;resizable=0;points=[];autosize=1;strokeColor=none;fillColor=none;" vertex="1" parent="1">
          <mxGeometry x="-20" y="1130" width="180" height="30" as="geometry" />
        </mxCell>
        <mxCell id="d1XDg0m2k48VNrnfPDKk-3" value="10GB+10GB+10TB" style="text;html=1;align=center;verticalAlign=middle;resizable=0;points=[];autosize=1;strokeColor=none;fillColor=none;" vertex="1" parent="1">
          <mxGeometry x="169" y="1128" width="130" height="30" as="geometry" />
        </mxCell>
        <mxCell id="d1XDg0m2k48VNrnfPDKk-4" value="1000TB PER DAY" style="text;html=1;align=center;verticalAlign=middle;resizable=0;points=[];autosize=1;strokeColor=none;fillColor=none;" vertex="1" parent="1">
          <mxGeometry x="309" y="1128" width="120" height="30" as="geometry" />
        </mxCell>
      </root>
    </mxGraphModel>
  </diagram>
  <diagram id="yPgbJCQRYCbeDPHMax4H" name="Page-3">
    <mxGraphModel dx="1249" dy="657" grid="1" gridSize="10" guides="1" tooltips="1" connect="1" arrows="1" fold="1" page="1" pageScale="1" pageWidth="827" pageHeight="1169" math="0" shadow="0">
      <root>
        <mxCell id="0" />
        <mxCell id="1" parent="0" />
        <mxCell id="SqYyM-OefP2LalQnOz38-41" value="Tweet" style="swimlane;html=1;fontStyle=0;childLayout=stackLayout;horizontal=1;startSize=26;fillColor=#e0e0e0;horizontalStack=0;resizeParent=1;resizeLast=0;collapsible=1;marginBottom=0;swimlaneFillColor=#ffffff;align=center;labelBackgroundColor=none;fontSize=14;fontColor=#000000;strokeWidth=1;shadow=1;" vertex="1" parent="1">
          <mxGeometry x="210" y="270" width="212" height="268" as="geometry">
            <mxRectangle x="10" y="270" width="60" height="26" as="alternateBounds" />
          </mxGeometry>
        </mxCell>
        <mxCell id="SqYyM-OefP2LalQnOz38-42" value="&lt;span&gt;TweetID: int&lt;/span&gt;" style="shape=partialRectangle;top=0;left=0;right=0;bottom=1;html=1;align=left;verticalAlign=middle;fillColor=none;spacingLeft=34;spacingRight=4;whiteSpace=wrap;overflow=hidden;rotatable=0;points=[[0,0.5],[1,0.5]];portConstraint=eastwest;dropTarget=0;fontStyle=5;strokeWidth=1;fontSize=14;" vertex="1" parent="SqYyM-OefP2LalQnOz38-41">
          <mxGeometry y="26" width="212" height="30" as="geometry" />
        </mxCell>
        <mxCell id="SqYyM-OefP2LalQnOz38-43" value="PK" style="shape=partialRectangle;top=0;left=0;bottom=0;html=1;fillColor=none;align=left;verticalAlign=middle;spacingLeft=4;spacingRight=4;whiteSpace=wrap;overflow=hidden;rotatable=0;points=[];portConstraint=eastwest;part=1;strokeWidth=1;fontSize=12;" vertex="1" connectable="0" parent="SqYyM-OefP2LalQnOz38-42">
          <mxGeometry width="30" height="30" as="geometry" />
        </mxCell>
        <mxCell id="SqYyM-OefP2LalQnOz38-44" value="&lt;span&gt;UserID: int&lt;/span&gt;" style="shape=partialRectangle;top=0;left=0;right=0;bottom=0;html=1;align=left;verticalAlign=top;fillColor=none;spacingLeft=34;spacingRight=4;whiteSpace=wrap;overflow=hidden;rotatable=0;points=[[0,0.5],[1,0.5]];portConstraint=eastwest;dropTarget=0;strokeWidth=1;fontSize=14;" vertex="1" parent="SqYyM-OefP2LalQnOz38-41">
          <mxGeometry y="56" width="212" height="26" as="geometry" />
        </mxCell>
        <mxCell id="SqYyM-OefP2LalQnOz38-45" value="" style="shape=partialRectangle;top=0;left=0;bottom=0;html=1;fillColor=none;align=left;verticalAlign=top;spacingLeft=4;spacingRight=4;whiteSpace=wrap;overflow=hidden;rotatable=0;points=[];portConstraint=eastwest;part=1;strokeWidth=1;fontSize=14;" vertex="1" connectable="0" parent="SqYyM-OefP2LalQnOz38-44">
          <mxGeometry width="30" height="26" as="geometry" />
        </mxCell>
        <mxCell id="SqYyM-OefP2LalQnOz38-46" value="&lt;span&gt;Content: varchar(140)&lt;/span&gt;" style="shape=partialRectangle;top=0;left=0;right=0;bottom=0;html=1;align=left;verticalAlign=top;fillColor=none;spacingLeft=34;spacingRight=4;whiteSpace=wrap;overflow=hidden;rotatable=0;points=[[0,0.5],[1,0.5]];portConstraint=eastwest;dropTarget=0;strokeWidth=1;fontSize=14;" vertex="1" parent="SqYyM-OefP2LalQnOz38-41">
          <mxGeometry y="82" width="212" height="26" as="geometry" />
        </mxCell>
        <mxCell id="SqYyM-OefP2LalQnOz38-47" value="" style="shape=partialRectangle;top=0;left=0;bottom=0;html=1;fillColor=none;align=left;verticalAlign=top;spacingLeft=4;spacingRight=4;whiteSpace=wrap;overflow=hidden;rotatable=0;points=[];portConstraint=eastwest;part=1;strokeWidth=1;fontSize=14;" vertex="1" connectable="0" parent="SqYyM-OefP2LalQnOz38-46">
          <mxGeometry width="30" height="26" as="geometry" />
        </mxCell>
        <mxCell id="SqYyM-OefP2LalQnOz38-48" value="&lt;span&gt;TweetLatitude&lt;/span&gt;&lt;span&gt;: int&lt;/span&gt;" style="shape=partialRectangle;top=0;left=0;right=0;bottom=0;html=1;align=left;verticalAlign=top;fillColor=none;spacingLeft=34;spacingRight=4;whiteSpace=wrap;overflow=hidden;rotatable=0;points=[[0,0.5],[1,0.5]];portConstraint=eastwest;dropTarget=0;strokeWidth=1;fontSize=14;" vertex="1" parent="SqYyM-OefP2LalQnOz38-41">
          <mxGeometry y="108" width="212" height="26" as="geometry" />
        </mxCell>
        <mxCell id="SqYyM-OefP2LalQnOz38-49" value="" style="shape=partialRectangle;top=0;left=0;bottom=0;html=1;fillColor=none;align=left;verticalAlign=top;spacingLeft=4;spacingRight=4;whiteSpace=wrap;overflow=hidden;rotatable=0;points=[];portConstraint=eastwest;part=1;strokeWidth=1;fontSize=14;" vertex="1" connectable="0" parent="SqYyM-OefP2LalQnOz38-48">
          <mxGeometry width="30" height="26" as="geometry" />
        </mxCell>
        <mxCell id="SqYyM-OefP2LalQnOz38-50" value="TweetLongitude: int&lt;br&gt;" style="shape=partialRectangle;top=0;left=0;right=0;bottom=0;html=1;align=left;verticalAlign=top;fillColor=none;spacingLeft=34;spacingRight=4;whiteSpace=wrap;overflow=hidden;rotatable=0;points=[[0,0.5],[1,0.5]];portConstraint=eastwest;dropTarget=0;strokeWidth=1;fontSize=14;" vertex="1" parent="SqYyM-OefP2LalQnOz38-41">
          <mxGeometry y="134" width="212" height="26" as="geometry" />
        </mxCell>
        <mxCell id="SqYyM-OefP2LalQnOz38-51" value="" style="shape=partialRectangle;top=0;left=0;bottom=0;html=1;fillColor=none;align=left;verticalAlign=top;spacingLeft=4;spacingRight=4;whiteSpace=wrap;overflow=hidden;rotatable=0;points=[];portConstraint=eastwest;part=1;strokeWidth=1;fontSize=14;" vertex="1" connectable="0" parent="SqYyM-OefP2LalQnOz38-50">
          <mxGeometry width="30" height="26" as="geometry" />
        </mxCell>
        <mxCell id="SqYyM-OefP2LalQnOz38-52" value="&lt;span&gt;UserLatitude&lt;/span&gt;&lt;span&gt;: int&lt;/span&gt;" style="shape=partialRectangle;top=0;left=0;right=0;bottom=0;html=1;align=left;verticalAlign=top;fillColor=none;spacingLeft=34;spacingRight=4;whiteSpace=wrap;overflow=hidden;rotatable=0;points=[[0,0.5],[1,0.5]];portConstraint=eastwest;dropTarget=0;strokeWidth=1;fontSize=14;" vertex="1" parent="SqYyM-OefP2LalQnOz38-41">
          <mxGeometry y="160" width="212" height="26" as="geometry" />
        </mxCell>
        <mxCell id="SqYyM-OefP2LalQnOz38-53" value="" style="shape=partialRectangle;top=0;left=0;bottom=0;html=1;fillColor=none;align=left;verticalAlign=top;spacingLeft=4;spacingRight=4;whiteSpace=wrap;overflow=hidden;rotatable=0;points=[];portConstraint=eastwest;part=1;strokeWidth=1;fontSize=14;" vertex="1" connectable="0" parent="SqYyM-OefP2LalQnOz38-52">
          <mxGeometry width="30" height="26" as="geometry" />
        </mxCell>
        <mxCell id="SqYyM-OefP2LalQnOz38-54" value="UserLongitude: int&lt;br&gt;" style="shape=partialRectangle;top=0;left=0;right=0;bottom=0;html=1;align=left;verticalAlign=top;fillColor=none;spacingLeft=34;spacingRight=4;whiteSpace=wrap;overflow=hidden;rotatable=0;points=[[0,0.5],[1,0.5]];portConstraint=eastwest;dropTarget=0;strokeWidth=1;fontSize=14;" vertex="1" parent="SqYyM-OefP2LalQnOz38-41">
          <mxGeometry y="186" width="212" height="26" as="geometry" />
        </mxCell>
        <mxCell id="SqYyM-OefP2LalQnOz38-55" value="" style="shape=partialRectangle;top=0;left=0;bottom=0;html=1;fillColor=none;align=left;verticalAlign=top;spacingLeft=4;spacingRight=4;whiteSpace=wrap;overflow=hidden;rotatable=0;points=[];portConstraint=eastwest;part=1;strokeWidth=1;fontSize=14;" vertex="1" connectable="0" parent="SqYyM-OefP2LalQnOz38-54">
          <mxGeometry width="30" height="26" as="geometry" />
        </mxCell>
        <mxCell id="SqYyM-OefP2LalQnOz38-56" value="&lt;span&gt;CreationDate: datetime&lt;/span&gt;" style="shape=partialRectangle;top=0;left=0;right=0;bottom=0;html=1;align=left;verticalAlign=top;fillColor=none;spacingLeft=34;spacingRight=4;whiteSpace=wrap;overflow=hidden;rotatable=0;points=[[0,0.5],[1,0.5]];portConstraint=eastwest;dropTarget=0;strokeWidth=1;fontSize=14;" vertex="1" parent="SqYyM-OefP2LalQnOz38-41">
          <mxGeometry y="212" width="212" height="26" as="geometry" />
        </mxCell>
        <mxCell id="SqYyM-OefP2LalQnOz38-57" value="" style="shape=partialRectangle;top=0;left=0;bottom=0;html=1;fillColor=none;align=left;verticalAlign=top;spacingLeft=4;spacingRight=4;whiteSpace=wrap;overflow=hidden;rotatable=0;points=[];portConstraint=eastwest;part=1;strokeWidth=1;fontSize=14;" vertex="1" connectable="0" parent="SqYyM-OefP2LalQnOz38-56">
          <mxGeometry width="30" height="26" as="geometry" />
        </mxCell>
        <mxCell id="SqYyM-OefP2LalQnOz38-58" value="&lt;span&gt;NumFavorites&lt;/span&gt;: int&lt;br&gt;" style="shape=partialRectangle;top=0;left=0;right=0;bottom=0;html=1;align=left;verticalAlign=top;fillColor=none;spacingLeft=34;spacingRight=4;whiteSpace=wrap;overflow=hidden;rotatable=0;points=[[0,0.5],[1,0.5]];portConstraint=eastwest;dropTarget=0;strokeWidth=1;fontSize=14;" vertex="1" parent="SqYyM-OefP2LalQnOz38-41">
          <mxGeometry y="238" width="212" height="26" as="geometry" />
        </mxCell>
        <mxCell id="SqYyM-OefP2LalQnOz38-59" value="" style="shape=partialRectangle;top=0;left=0;bottom=0;html=1;fillColor=none;align=left;verticalAlign=top;spacingLeft=4;spacingRight=4;whiteSpace=wrap;overflow=hidden;rotatable=0;points=[];portConstraint=eastwest;part=1;strokeWidth=1;fontSize=14;" vertex="1" connectable="0" parent="SqYyM-OefP2LalQnOz38-58">
          <mxGeometry width="30" height="26" as="geometry" />
        </mxCell>
        <mxCell id="SqYyM-OefP2LalQnOz38-60" value="User" style="swimlane;html=1;fontStyle=0;childLayout=stackLayout;horizontal=1;startSize=26;fillColor=#e0e0e0;horizontalStack=0;resizeParent=1;resizeLast=0;collapsible=1;marginBottom=0;swimlaneFillColor=#ffffff;align=center;labelBackgroundColor=none;fontSize=14;fontColor=#000000;strokeWidth=1;shadow=1;" vertex="1" parent="1">
          <mxGeometry x="450" y="270" width="212" height="188" as="geometry">
            <mxRectangle x="10" y="270" width="60" height="26" as="alternateBounds" />
          </mxGeometry>
        </mxCell>
        <mxCell id="SqYyM-OefP2LalQnOz38-61" value="&lt;span&gt;UserID: int&lt;/span&gt;" style="shape=partialRectangle;top=0;left=0;right=0;bottom=1;html=1;align=left;verticalAlign=middle;fillColor=none;spacingLeft=34;spacingRight=4;whiteSpace=wrap;overflow=hidden;rotatable=0;points=[[0,0.5],[1,0.5]];portConstraint=eastwest;dropTarget=0;fontStyle=5;strokeWidth=1;fontSize=14;" vertex="1" parent="SqYyM-OefP2LalQnOz38-60">
          <mxGeometry y="26" width="212" height="30" as="geometry" />
        </mxCell>
        <mxCell id="SqYyM-OefP2LalQnOz38-62" value="PK" style="shape=partialRectangle;top=0;left=0;bottom=0;html=1;fillColor=none;align=left;verticalAlign=middle;spacingLeft=4;spacingRight=4;whiteSpace=wrap;overflow=hidden;rotatable=0;points=[];portConstraint=eastwest;part=1;strokeWidth=1;fontSize=12;" vertex="1" connectable="0" parent="SqYyM-OefP2LalQnOz38-61">
          <mxGeometry width="30" height="30" as="geometry" />
        </mxCell>
        <mxCell id="SqYyM-OefP2LalQnOz38-63" value="&lt;span&gt;Name: varchar(20)&lt;/span&gt;" style="shape=partialRectangle;top=0;left=0;right=0;bottom=0;html=1;align=left;verticalAlign=top;fillColor=none;spacingLeft=34;spacingRight=4;whiteSpace=wrap;overflow=hidden;rotatable=0;points=[[0,0.5],[1,0.5]];portConstraint=eastwest;dropTarget=0;strokeWidth=1;fontSize=14;" vertex="1" parent="SqYyM-OefP2LalQnOz38-60">
          <mxGeometry y="56" width="212" height="26" as="geometry" />
        </mxCell>
        <mxCell id="SqYyM-OefP2LalQnOz38-64" value="" style="shape=partialRectangle;top=0;left=0;bottom=0;html=1;fillColor=none;align=left;verticalAlign=top;spacingLeft=4;spacingRight=4;whiteSpace=wrap;overflow=hidden;rotatable=0;points=[];portConstraint=eastwest;part=1;strokeWidth=1;fontSize=14;" vertex="1" connectable="0" parent="SqYyM-OefP2LalQnOz38-63">
          <mxGeometry width="30" height="26" as="geometry" />
        </mxCell>
        <mxCell id="SqYyM-OefP2LalQnOz38-65" value="&lt;span&gt;Email: varchar(32)&lt;/span&gt;" style="shape=partialRectangle;top=0;left=0;right=0;bottom=0;html=1;align=left;verticalAlign=top;fillColor=none;spacingLeft=34;spacingRight=4;whiteSpace=wrap;overflow=hidden;rotatable=0;points=[[0,0.5],[1,0.5]];portConstraint=eastwest;dropTarget=0;strokeWidth=1;fontSize=14;" vertex="1" parent="SqYyM-OefP2LalQnOz38-60">
          <mxGeometry y="82" width="212" height="26" as="geometry" />
        </mxCell>
        <mxCell id="SqYyM-OefP2LalQnOz38-66" value="" style="shape=partialRectangle;top=0;left=0;bottom=0;html=1;fillColor=none;align=left;verticalAlign=top;spacingLeft=4;spacingRight=4;whiteSpace=wrap;overflow=hidden;rotatable=0;points=[];portConstraint=eastwest;part=1;strokeWidth=1;fontSize=14;" vertex="1" connectable="0" parent="SqYyM-OefP2LalQnOz38-65">
          <mxGeometry width="30" height="26" as="geometry" />
        </mxCell>
        <mxCell id="SqYyM-OefP2LalQnOz38-67" value="DateOfBirth: datetime&lt;br&gt;" style="shape=partialRectangle;top=0;left=0;right=0;bottom=0;html=1;align=left;verticalAlign=top;fillColor=none;spacingLeft=34;spacingRight=4;whiteSpace=wrap;overflow=hidden;rotatable=0;points=[[0,0.5],[1,0.5]];portConstraint=eastwest;dropTarget=0;strokeWidth=1;fontSize=14;" vertex="1" parent="SqYyM-OefP2LalQnOz38-60">
          <mxGeometry y="108" width="212" height="26" as="geometry" />
        </mxCell>
        <mxCell id="SqYyM-OefP2LalQnOz38-68" value="" style="shape=partialRectangle;top=0;left=0;bottom=0;html=1;fillColor=none;align=left;verticalAlign=top;spacingLeft=4;spacingRight=4;whiteSpace=wrap;overflow=hidden;rotatable=0;points=[];portConstraint=eastwest;part=1;strokeWidth=1;fontSize=14;" vertex="1" connectable="0" parent="SqYyM-OefP2LalQnOz38-67">
          <mxGeometry width="30" height="26" as="geometry" />
        </mxCell>
        <mxCell id="SqYyM-OefP2LalQnOz38-69" value="CreationDate: datetime&lt;br&gt;" style="shape=partialRectangle;top=0;left=0;right=0;bottom=0;html=1;align=left;verticalAlign=top;fillColor=none;spacingLeft=34;spacingRight=4;whiteSpace=wrap;overflow=hidden;rotatable=0;points=[[0,0.5],[1,0.5]];portConstraint=eastwest;dropTarget=0;strokeWidth=1;fontSize=14;" vertex="1" parent="SqYyM-OefP2LalQnOz38-60">
          <mxGeometry y="134" width="212" height="26" as="geometry" />
        </mxCell>
        <mxCell id="SqYyM-OefP2LalQnOz38-70" value="" style="shape=partialRectangle;top=0;left=0;bottom=0;html=1;fillColor=none;align=left;verticalAlign=top;spacingLeft=4;spacingRight=4;whiteSpace=wrap;overflow=hidden;rotatable=0;points=[];portConstraint=eastwest;part=1;strokeWidth=1;fontSize=14;" vertex="1" connectable="0" parent="SqYyM-OefP2LalQnOz38-69">
          <mxGeometry width="30" height="26" as="geometry" />
        </mxCell>
        <mxCell id="SqYyM-OefP2LalQnOz38-71" value="&lt;span&gt;LastLogin: datatime&lt;/span&gt;" style="shape=partialRectangle;top=0;left=0;right=0;bottom=0;html=1;align=left;verticalAlign=top;fillColor=none;spacingLeft=34;spacingRight=4;whiteSpace=wrap;overflow=hidden;rotatable=0;points=[[0,0.5],[1,0.5]];portConstraint=eastwest;dropTarget=0;strokeWidth=1;fontSize=14;" vertex="1" parent="SqYyM-OefP2LalQnOz38-60">
          <mxGeometry y="160" width="212" height="26" as="geometry" />
        </mxCell>
        <mxCell id="SqYyM-OefP2LalQnOz38-72" value="" style="shape=partialRectangle;top=0;left=0;bottom=0;html=1;fillColor=none;align=left;verticalAlign=top;spacingLeft=4;spacingRight=4;whiteSpace=wrap;overflow=hidden;rotatable=0;points=[];portConstraint=eastwest;part=1;strokeWidth=1;fontSize=14;" vertex="1" connectable="0" parent="SqYyM-OefP2LalQnOz38-71">
          <mxGeometry width="30" height="26" as="geometry" />
        </mxCell>
        <mxCell id="SqYyM-OefP2LalQnOz38-73" value="&lt;span&gt;UserFollow&lt;/span&gt;" style="swimlane;html=1;fontStyle=0;childLayout=stackLayout;horizontal=1;startSize=26;fillColor=#e0e0e0;horizontalStack=0;resizeParent=1;resizeLast=0;collapsible=1;marginBottom=0;swimlaneFillColor=#ffffff;align=center;labelBackgroundColor=none;fontSize=14;fontColor=#000000;strokeWidth=1;shadow=1;" vertex="1" parent="1">
          <mxGeometry x="690" y="270" width="212" height="70" as="geometry">
            <mxRectangle x="10" y="270" width="60" height="26" as="alternateBounds" />
          </mxGeometry>
        </mxCell>
        <mxCell id="SqYyM-OefP2LalQnOz38-74" value="&lt;span&gt;UserID1: int&lt;/span&gt;&lt;div&gt;&lt;div&gt;&lt;span&gt;UserID2: int&lt;/span&gt;&lt;/div&gt;&lt;/div&gt;" style="shape=partialRectangle;top=0;left=0;right=0;bottom=1;html=1;align=left;verticalAlign=middle;fillColor=none;spacingLeft=34;spacingRight=4;whiteSpace=wrap;overflow=hidden;rotatable=0;points=[[0,0.5],[1,0.5]];portConstraint=eastwest;dropTarget=0;fontStyle=5;strokeWidth=1;fontSize=14;" vertex="1" parent="SqYyM-OefP2LalQnOz38-73">
          <mxGeometry y="26" width="212" height="44" as="geometry" />
        </mxCell>
        <mxCell id="SqYyM-OefP2LalQnOz38-75" value="PK" style="shape=partialRectangle;top=0;left=0;bottom=0;html=1;fillColor=none;align=left;verticalAlign=middle;spacingLeft=4;spacingRight=4;whiteSpace=wrap;overflow=hidden;rotatable=0;points=[];portConstraint=eastwest;part=1;strokeWidth=1;fontSize=12;" vertex="1" connectable="0" parent="SqYyM-OefP2LalQnOz38-74">
          <mxGeometry width="30" height="44" as="geometry" />
        </mxCell>
        <mxCell id="SqYyM-OefP2LalQnOz38-76" value="Favorite" style="swimlane;html=1;fontStyle=0;childLayout=stackLayout;horizontal=1;startSize=26;fillColor=#e0e0e0;horizontalStack=0;resizeParent=1;resizeLast=0;collapsible=1;marginBottom=0;swimlaneFillColor=#ffffff;align=center;labelBackgroundColor=none;fontSize=14;fontColor=#000000;strokeWidth=1;shadow=1;" vertex="1" parent="1">
          <mxGeometry x="930" y="270" width="212" height="98" as="geometry">
            <mxRectangle x="10" y="270" width="60" height="26" as="alternateBounds" />
          </mxGeometry>
        </mxCell>
        <mxCell id="SqYyM-OefP2LalQnOz38-77" value="&lt;div&gt;Tweet&lt;span&gt;ID: int&lt;/span&gt;&lt;/div&gt;&lt;div&gt;&lt;span&gt;UserID: int&lt;br&gt;&lt;/span&gt;&lt;/div&gt;" style="shape=partialRectangle;top=0;left=0;right=0;bottom=1;html=1;align=left;verticalAlign=middle;fillColor=none;spacingLeft=34;spacingRight=4;whiteSpace=wrap;overflow=hidden;rotatable=0;points=[[0,0.5],[1,0.5]];portConstraint=eastwest;dropTarget=0;fontStyle=5;strokeWidth=1;fontSize=14;" vertex="1" parent="SqYyM-OefP2LalQnOz38-76">
          <mxGeometry y="26" width="212" height="44" as="geometry" />
        </mxCell>
        <mxCell id="SqYyM-OefP2LalQnOz38-78" value="PK" style="shape=partialRectangle;top=0;left=0;bottom=0;html=1;fillColor=none;align=left;verticalAlign=middle;spacingLeft=4;spacingRight=4;whiteSpace=wrap;overflow=hidden;rotatable=0;points=[];portConstraint=eastwest;part=1;strokeWidth=1;fontSize=12;" vertex="1" connectable="0" parent="SqYyM-OefP2LalQnOz38-77">
          <mxGeometry width="30" height="44" as="geometry" />
        </mxCell>
        <mxCell id="SqYyM-OefP2LalQnOz38-79" value="CreationDate: datetime&lt;br&gt;" style="shape=partialRectangle;top=0;left=0;right=0;bottom=0;html=1;align=left;verticalAlign=top;fillColor=none;spacingLeft=34;spacingRight=4;whiteSpace=wrap;overflow=hidden;rotatable=0;points=[[0,0.5],[1,0.5]];portConstraint=eastwest;dropTarget=0;strokeWidth=1;fontSize=14;" vertex="1" parent="SqYyM-OefP2LalQnOz38-76">
          <mxGeometry y="70" width="212" height="26" as="geometry" />
        </mxCell>
        <mxCell id="SqYyM-OefP2LalQnOz38-80" value="" style="shape=partialRectangle;top=0;left=0;bottom=0;html=1;fillColor=none;align=left;verticalAlign=top;spacingLeft=4;spacingRight=4;whiteSpace=wrap;overflow=hidden;rotatable=0;points=[];portConstraint=eastwest;part=1;strokeWidth=1;fontSize=14;" vertex="1" connectable="0" parent="SqYyM-OefP2LalQnOz38-79">
          <mxGeometry width="30" height="26" as="geometry" />
        </mxCell>
        <mxCell id="luhBhmtW53a5mRQdMJ6O-1" value="&lt;font size=&quot;1&quot; style=&quot;&quot;&gt;&lt;b style=&quot;font-size: 18px;&quot;&gt;DATABASE SCHEMA&lt;/b&gt;&lt;/font&gt;" style="text;html=1;align=center;verticalAlign=middle;resizable=0;points=[];autosize=1;strokeColor=none;fillColor=none;" vertex="1" parent="1">
          <mxGeometry x="427" y="55" width="200" height="40" as="geometry" />
        </mxCell>
        <mxCell id="luhBhmtW53a5mRQdMJ6O-2" value="&lt;font style=&quot;font-size: 18px;&quot;&gt;&lt;b&gt;DATA MODEL DESIGN&lt;/b&gt;&lt;/font&gt;" style="text;html=1;align=center;verticalAlign=middle;resizable=0;points=[];autosize=1;strokeColor=none;fillColor=none;" vertex="1" parent="1">
          <mxGeometry x="407" y="603" width="210" height="40" as="geometry" />
        </mxCell>
        <mxCell id="luhBhmtW53a5mRQdMJ6O-3" value="" style="shape=image;verticalLabelPosition=bottom;labelBackgroundColor=default;verticalAlign=top;aspect=fixed;imageAspect=0;image=data:image/png,iVBORw0KGgoAAAANSUhEUgAAAvMAAAIpCAIAAACgwiDJAACoiUlEQVR42uz9fXRT15n3jV9Hso1sLBuMDTjGBQcdJzbiTjEFMlJCXkqSkU0Tr6Z1slabnztplpSZH600nZ/v5mmcATfO3czyais9k3sW9qKdeE3bp1EmU7fF0rNCCm2ItEJomHgQyh3ruMAEMMTBYBv8Jh3t3x9HL0evlo1t/PL9LJY52mfv6+yzdaT91bWvvTfHGCMAAAAAgCWBAk0AAAAAACgbAAAAAAAoGwAAAAAAKBsAAAAAACgbAAAAAEDZAAAAAABA2QAAAAAAQNkAAAAAAMwCWWgCAEAio6OjJ0+eHLw+rOA4JX4BzRlikIIsuLqwcOfOHXl5eWgQAG4dDmsQAwDiOHHixOUrn/lz1DezCv3KXJFTEHFoljmAKVkwWxxbGRjKmhwpXbdu166daBQAoGwAALPJ20feGZ3wD+aV+xUr0BrzRnZwvGj003zVij17vozWAOBWgJcZABDl/fffHx2fHFhZAVkzz/gVqoGVFTfGJ06cOIHWAADKBgAwC4yOjl75bGBw5ReCnBKtMf8EuaxreeWXr3w2OjqK1gBgxmA0CgAQ4k9/+tPAGLuqKpMn/uwf/VMWLFqfc98T5wqKSlbkIgb2VlkzdqEkT/HAAw+gKQCYGZgbBQAIMXh9+ObKDXGJlV9cpVAQx3FERNLvII6Ihf4GGWOM8lcpz5x8b8uO+0rKNqIZb5HRnFWD1y+gHQCAsgEA3CoKjvxKVVxiw/NrH6/OIqIgk6YokxhkYpACjAIiBYJsMkDHPhn9xU/Oj2tr0Ia3zoRCVYiJaABA2QAAbh2lghMTImw4xkZGA//92ahfZEqlonBldv+1cX+ArSnM7R8cm/AzTVmB6A+g9dIwPnx16GJf0lOFZZtVBWvkKUFOqVRA2gAAZQMAmB3i+9QgYyKjcX9wYlLMylKqcrLGJoITAZbvD96cCE5O+EfGxvyTk0lt/fKhyuMJife/2vuNXbNWXc+PK187PMs2Z50VKws/6/1P/+hIXHp2bn4xv23KtwAAAGUDAJg1gqIoBrP8geBEgAVZYFLMmfCzCX9gIsAmJoN+/+T4xAoxkDzK+BvHer9BNPDW0y+9dor2Hjr4D7uXqVpUZt2xVX/+xP8bl37HPfcrs7LxjAEwu2DWNwAgHaIYlAJrxCAFgqHYmoBIfpECkZSAmLlBz48rn3+o8pcniIgG3nr6+Ycqn//xu0REFzvbHqp8fl9n9Fj6J51Nljjw1tOvHSYiOv5C5fMPVUaMxxdcAKyp2JJXtE6ekrd67ZpN1XjAAICyAQDMK8FAQAySyEgMkhhkfsYCIU0TOaBgYBpxNus21RDRpQvniejKuVNERGfPDhANvO/sI9r80IN0sbPtm6/07T108Fjvy/tq6PBzbW+dT5pY8uSv9+0lIrr/1d6Dx3olobN535GDx3oP/uLFzQuqHTmubNuD8oSybQ8Sh4EnAKBsAADzrGzEgF8kv0h+UfQHgoEATYoUEIOTgWBADAZE5heZOB1lU3KvYTNR37E/DtC7PYfp/r1P0Rnn6YuSyqnZfu9Gz69f6SO6/77dRFSygSeivnPnkybGWZZ0Ut+xPw4QUVlj0wIb/FKvLV+1QSMdryrn1eu+gKcLgLkAcTYAgHQE/KI/SGOTgcmJiYCCGxsfn5yY8Af8Y2PKSf+E6A/4RSZOZzSKyh7cvuWVvjPClYt0iWq236fZfPiN/gvn6SwR8WvDywQef0EWfXz2LFUkS6QY7aJ9+sXNh1/pO/PKSw+9QkSb9x1penJhra9Ttu3BoUtnidgd9+zGowUAlA0A4HYom4AYCIgrlCJTBomjgH8ySyGSkgX8k1mKIJetEIPExOkoG9q4toLojK/n174+4g27Hty+5RX7v31/8xmivY9oiTxElDCFyvPjV2jKeVVljU3HGik8Yarv2B/pycYF1Zgr8leV8F8kjlOpV+PRAmCOwGgUACCtsvH7s7MV64vz1xcXFK9W5+aq1har165R563MXVtcsLa4kFPmsGBwWja19z1FdOr44VO09xFtSOicigw2aZ9+cTPR8X/rHJByX+xs+/G7SRMpNmrH8+Onj16kiAWqqFiA7ble+1frt9yL5wqAuQM+GwBAOj4fHHO4PxWlKVKMsSAxxoJMOuYYMSIaG52YntFdj9xPbxwn2rxpY0joHH6DqKZU2tqhrLHpF9T2zdCgEhHR3kPJE4lKnvynhmOP2F975PnXaN9esn+z0i6d3fLiywtyknlWjgoPFQBzCnbEBACEOHz48MX8u+ISBy6eP3PyvYGL59OXLSnbiH2jZouyG5/s3bsX7QDADH8/oAkAAGkoKCrZsuO+KfeEUuXmFRSVoLkAAFA2AIAFzYrcPHhiAACLCEQQAwAAAADKBgAAAAAAygYAAAAAYO5AnA0AIErZjU/QCAAAKBsAwFLgww8/3L9/P9rhttPS0oJZ3wDMGIxGAQAAAGDpMA2fzejo6MmTJwevDys4TglFdLsRgxRkwdWFhTt37sjLy0ODAAAAANNQNidOnLh85TN/jvrmyg1+Za7IKYg4NN/tgylZMFscE8eH3n7nD6Xr1u3atRONAgAAAGTke3n7yDv9A4NX8yuuqsrGs/JFTglZc7vhRE45npV/VVU2mL+pf+Dzd975AxoFzBE3zzXd/MvzYmAUm7EAAJaCsnn//fdHxycHVlb4FSvQXgsQv0I1sLLixvjEiRMn0Bpg9mVN74M5ojtbeXriv/jrV/sCgQDaBACwiJXN6Ojolc8GBld+Icgp0VgLliCXdS2v/PKVz0ZHR9EaYBYZv9yhKrmbclVcjlaVnX+jzzw8PAzPDQBgITNFnM3Jkyf9Oeo4b83P/tE/pd2i9Tn3PXGuoKhkRS6CW+eDSYXKn51/8uTJBx54AK0BZgtOkcuC15VKopETFAiM3RwODA0VFhYqlaGfOhwXGphmjEWOicjhcBgMhnhrsZmtVqvZbCYiQRAaGxuJyO12y/NHMgAAQOZM4bMZvD58M6swLrHyi6vurllVtX111fbVVTWrq2rCB9tXV9Wsvmvbqsovrtp0t/rMyfeGBwfQxPPGaM6qwevDaAcwi6xY+8zNK+eDEzfZjZGR8ZHTVxvl8oWIfD6fTqeTvDjSAWPM5/PV1tY6nc44a3GZ7Xa7IAiRsy6XSyobsQNZAwCYAVP4bBQc+ZWquMSG59c+Xp1FREEmzT0mMcjEIAUYBUQKBNlkgI59MvqLn5wf19agieeNCYWqEIHdYNbJ/xan/NXYjUHP5/etv6OqsLBQoZjiF5FGo/H5fI2NjYluGznNzc1tbW3t7e1oYwDA/CkbpYITEyJsOMZGRgP//dmoX2RKpaJwZXb/tXF/gK0pzO0fHJvwM01ZgehHmOEsMD58dehiX9JThWWbVQVr5ClBTqlUQNqAWSYnJ4eCJFLWUM7f/o+NG9VqdZzbJpW4iRtaSsRgMHR1dTmdTp7n0c4AgHlSNpKSiXsdZExkNO4PTkyKWVlKVU7W2ERwIsDy/cGbE8HJCf/I2Jh/cjKpLc+Jd1974bnNW2qaXvs1EbXte7rvzKmGfS8+/GQj3oxEVqws/Kz3P/2jI3Hp2bn5xfy2Kd8pAG4dScco2NjqVflqtToraza3ZGlqampsbOzs7EQ7AwBmi5msJRwURTFI/kBwIsAm/YFJkU342cRkYCLAJiaDk/7J8YmAGPCjcWehU1Fm3bFVn5h+xz33K7Oy0T5g3mCcgk1nyXJBEHQ63ZTZNBpNQ0NDd3c3WhgAMFvM5OeXKAalwBoxSBwXiq0JiOQXKRCkQJACIgUC4gws//LHLx0//IZ0fP/ep77xDy8PXDz/0jcfkadIXp/79z51z32PvPbCcweP9SaWWkrv0JqKLQO+/xwdvBJJyVu9ds2majy7YH5QrfvWDe//us7V5ObmRqZETQnP8w6HI5OcZrOZ47hMZBAAAGTCjHw2gYAYJJGRGCQxyPyMBUKaJnJAwekv53X0rc7jh99o2PfiwWO9L//iCBFJsub+vU8dPNbbsO/F44ffOPpWyGt96azvtReeS1pqqcFxZdselCeUbXuQOAw8gflDLDsZKP35+vXrc3JyEhWM2+2WRqykAwmfz5cYPizPLCdDDQQAAHOmbMSAXyS/SH5R9AeCgQBNihQQg5OBYEAMBkTmF5k4fWXTf04gog+POYmopGzjN/7h5bd/fYiI7rnvESJau6Eikkfi4LHeg8d6E0stvTdJvbZ81QaNdLyqnFev+wIeXDCfFBYW3nnnnaWlpYnKhoWRHzPGNBpNoh15ZpfLFUk3GAyRlxqNRn4KAADmQ9kE/KI/SGOTgcmJifGJybHx8cmJicnJibGx8Un/RMAf8ItMnP5o1KNPP0dEfWdOPf9Q5fMPVUbcM6+98NzzD1VKHppLZ31S4h0VfPpSS4yybQ9yCiWnUNxxz248tQAAAEAqZhJnEwiIgYC4QikyZZA4CvgnsxQiKVnAP5mlCHLZCjFITJyGspH8MSVlGw8e66VwtM2Hx5ySfNn36iHtrmh37jnxrrxsYqklOc1qRf6qEv6LxHEq9Wo8tQAAAEAqZuaz8WdnK9YX568vLiherc7NVa0tVq9do85bmbu2uGBtcSGnzGHBYNKykkbpO3Nq4OJ56SCS+MsfvyQlSm6YOyp46cD5b/8ilR24eP6XP34pzmBiqaX6Vq3X/tX6LffikQUAAADSMBOfzeeDYw73p6I0RYoxFiTGWJBJxxwjRkRjoxOpih881vv8Q5WRGU/ysN9I4uYtNVLEzMu/OPLSNx95/qFKKf3+vU8lGkwstTTfqhwVnlcAAABg9pVNIPip69h7kqckDSVlG1UptsOUxo/i+MY/vJyoSyKDTamKJy0FAAAAACibTCkoKtmy474p94RS5eYVFJWgiQEAAACwoJXNity8krKNaDsAAAAALDQUaAIAAAAAQNkAAAAAAEDZAAAAAADMGVPH2ZTd+ATNBAAAAICloGw+/PDD/fv3o5kWCy0tLXv37kU7gNnlyvDwv7733rd0ujUrV2ZnZ6NBAAALGYxGAQDS0T809O8fffTcY48dOnHiL5cuTU5Ook1kCDY9x5mcGebmOL1NQKMBAGUDALh9suY3PT3P7t5drFSa9+x53evt6++Xixu9vKcWbPrpd9x6TsLkjB6HXyeqiKh9+QvBpo/RDDI7sRVymuQXSFv5GJupDAq2RovWwdoNFHeRUC759fQ2gZhDa2mEtgEAygYAcDu4NDT0Hz09f7N7dy4REamVyqZHHz348cdCrLi5RVw+q05n9UnqQGf1McYYYz6rpzZB3GjqGsjeLekCodtODXWayLHRGDkVY6fBzofMCDY9V0sOFsJBXe401YqzmcwgkbPNQtameFnTSkZdNMEYvqLLrCEyNFnJ0ubEwwXAwlM2N8813fzL82JglDGGRgRgSfL6e+89pdfnylKKlMqvbdv2q56eoaGhdKrApo9xcMS/Jr3eZjNx6UZxNGaXz+ppjXNvyKSNzxsjbBqa6rVumbSJlKjUhg+77WT1Rb0rhvZ2XXphk9SmzCA5uzp04UqEb7y12udqqk5tWFPXoPP0wmsDwAJTNjd7H8wR3dnK0xP/xV+/2hcIBNCOACw9vq3XHzp6dEQUIylnrl7tOn784fz8sbGxNAUbLVrJUeHQen1EJt7bHHF4SGMxbou3nrG4UZxEUeL2+lKkObs6tJUyYVOnMdQbk0gbZ1eHrponIiK7O1wigtvCRwaLeIs7TtgktSkzKPR65MJGsOkbqdNljrtGR23sIFay2wIA3FZlM365Q1VyN+WquBytKjv/Rp95eHgYnhsAlh5r8vO/etddPzpyZFAUJVlz6OjRh3Nz16xZo1ar0xTUUoc0lGRobzcQecK9O8db3FKvrosbw8kYQ72xo8tJQq/HWG+QixAiuQyJSJbWal9Ea4QVSZTIGBNjzGfVxQsbmc2kBmPptrtDuXiL223h9TYiQ3t47CsaX8NXw2kDwMJSNpwilwWvK5WkvHmCAoGxm8NDQ0PBYDCaIYz8mOM4pzOJ4zkus81mC32xCIJer9fr5QGFnDwDAGCuycrK2rR+/TNVVS1Hjhy/cuXnx47tycvbsGFDeXl5QUFBmoLtjDFW3xWJA5YLiPR+GjlCrydRi5Ch3ujpdXbbtVFhExYUtR0UljbSFX1Wncw9knS0KvmVE20mMxiH2SUTSTqrz2WWneSrI7rJ5010HgEAbqeyWbH2mZtXzgcnbrIbIyPjI6evNkq6JILP59PpdJIXRzpgjPl8vtra2kRxE5fZbrcLQvS7x+VySWUjdsxmM94zAOaNnJyczaWlpqqqtz/4oK6oqLy8vLy8vLCwUKlUJsoFoTs04GOyCUSGduaz6jy9AmndM4iZdZp4i7Y5iXfEUK+11FrkwsYYjQqOHTzSmF0OigQiN1nJEg3+JafJ5E4tbJLbjDWoqZxKLDlN4ejl7shYWHLBBgC4jcqGiCj/W5xyxdiNQc+VXevvqCosLFQoprCj0Wh8Pl9ra2v6bM3NzW1tbXhXAFhQ4kZTWvrde+/leT5O1hBRu6/BHo5V4e0NoQjd0NANb2/oNGuo3Wf11CafhU1EemnsRpIL0cCX1mpfCveOod5I8qEo2cBWYlyMQbq43iaEgpIjFamlel0qYZNg8zMhiUFKHtoT46kJXY+3aB3S3cg0DgBgjmBpOXDgQGLiaP/PAxd3Xz9e3N3d/emnn/r9fvlZuYslciCReLnEzEaj0eFwyNPlx2AG7xcAeH7mCJ9VF53WnQkOY+zYHN4IAGafmfhspOEnBRtbvSpfrVZnZWXNotJqamqa0rUDAAALAY25M9nCO6m/PGs91k4zPDYAzCkzFyWMU7DpFBcEQafTTf1NodE0NDR0d3fjvQEALAJt42KZR/8x5kKTAbAQlY1q3bdueP/Xda4mNzdXPuKeHp7nHQ5HJjnNZjPHcZnIIAAAAACAW1U2RCSWnQyorq7Pzc3JyUlUMETEcRxjzO12R2ZO+Xw+jUaTJrM83eFwYEwKAAAAAPOkbAoLCwsLC5OekmuUKVfwk2dwuaJ+WoPBYDCEJidoNBr5KQAAAACAVGBHTAAAAABA2YDFwIEDBw4cOJB4DAAAAEDZAAAAAABA2QAAAAAAQNkAAAAAAEyXLDTBEiNug1IiamlpSXq8PJlyvh4AAAAoG7BAe24pZDjxL2QfmBZXhof/9b33vqXTrVm5Mjs7Gw0CAFjIYDQKAECMsXfffTfpqf6hoX//6KPnHnvs0IkTf7l0aXJycvk1j2DTcxluDpVkN3MAAJQNAGB2STPnnzH2u9/97ktf+tLf//3fJ5U1v+npeXb37mKl0rxnz+teb19/f0Tc2PRcHLfaqws2fdREzIuQvAgn6FNd02mKnjE5iSjeRoz9mNKpbAq2RovWwdoNMRcJZZFfT28TiDm0lkZoGwCgbMDc92dYzwYk8s477+zatau5ufmFF17485//HHf20tDQf/T0/M3u3blERKRWKpseffTgxx8LYXFjdjHGGPNZdTqrjzHGmOsW97HW1DWQvVvSBUK3nRrqIvaEbjsZjZGz4SsyX4OdD7lTBJueqyUHC+GgrnRuljiDKWwSOdssZG2KkTWtZJRta2cMX9Fl1hAZmqxkaXPigwwAlA0AYH41zc6dO7/3ve81NTX19PR8/etfTwxCev29957S63NlKUVK5de2bftVT8/Q0FAqyzZ9ZNzGaeL0NoH0epNJL3ejhNwlybw8Mmnj88YLm4ameq1bpkSkEpXa8GG3nay+qGvF0C5zsyQVNkkNxtokZ1eHLloPwaZvrfa5mqrTqjOdpxdeGwAWm7K5Mjz8qsNx+fp1v9+PRgRgiWkaiW/r9YeOHh0RxUjKmatXu44ffzg/f2xsLJV9c7OxQ/KVOLs6jM1mDZHbU90peVGMHbUmJ5GJ9zZHvCOxYzeaSq3b65NKaytjhU2dxlBvjFcizq4OXTVPRER2t6xEBLeFj4wX8Rb3lAZjbQq9noiwEWz6RupM8Et11MZqtMgtAAAWjbJBRGHcbz9EF4KFjxRPs3379u9///vNzc3pNY3Emvz8r95114+OHBkURUnWHDp69OHc3DVr1qjV6pTFDPWStHF2dRjrDUREEWlgqDeSp1cgT1gNcLzFHacCQsWFXk+otEyHEEWUSESvtFb7IlojLEdiiIwxSQNnqQxSCpsyuu3uUBbe4nZbeL2NyNAeHvuKxtfw1XDaAHCbv+/ScODAgbiUS9ev/+8//WmUMcbYcCDwgsPhPXduYmIikkEn/yaRDcDPDjEG5S981pgLM13yLzbGHMboGaNDF/etF5M3xmYqgz6rLjrOHrlCKIv8YjqrjzGHkWa3QaZ6v4AcfN7Tk/j8TExMeM+d+67T+e7ly997883Dhw9/9NFHV69eDQQCLOUHhzmMZHQ4jOEPhuxs6AOQ/mvBYdRZHVad7GMVESSRz1LIQuzHL+mnK+lnPNFgNGeszeTfYUlSZUnRW5/5B3kh9wsALHCm57OZMqKQiEhn1NrnbG5AqgDDzIIBEwMM3el8MVNHLC6E6EKA7+sp2b9///79+6XjI0eO7NixY+vWrXa7PRgMpld+OTk5m0tLTVVVb3/wQV1RUXl5eXl5eWFhoVKpTNPOhiarp7bWI/9gREd5Guo0pHWn+xQY6rWWWos2xmPjjkoFh2z8SGN2Oag27DJtspIl+tkkpymVKzW1wQSbmsqkkTgJ1xC6I2NhQq8nqfNoxs+q/O2TH+MHAACzMBqVWURhdVOzNu57KxovGB6OiQQVmpyhk9EvoZTRhZQqwDDDYMDEAENdemEzVcQiogvBomPPnj0ffPDBT37yk7a2tnvuuefNN99M35nl5ORoSku/e++9PM9nImvCj7nsgxEZ5aklh8usIWr3WT21qWeKG+qNFDcUJVNJhnqj2/6ZEP0Y+6yeWk5vE0hjdskN11K9IeVnO95gzKdcZpOSR+KE4atD1+MtWof03SLTOACAhT8adfnatR+9/fawzBHt+fzz77355h/+8Ifz58/Lfb8hd2yizzbsp9VFRmcShmmintykjuCwBUdiPpmRaEF5YoKPOF7ZJA51hYsnNRg3HhY6jh5FR6Ni/PG35qnGaBS4FZ+NnDj/zaw9P7Gjrrq5HIGdBxJHnDO/91n5IM+/zwYfGbCMRqMyjyg0NFk9rfGLbHEcx9V2kOSykH7R8dW6yEE4b7roQkoWYJh5MGCijzhpdCFlHLEoA9GFYDH6b06cONHa2vrqq69+6Utfmi2zkUlRSwONudPqqc10lkCtx9o5y/eO9WwAmMPRqKysrE3r1z9TVdVy5MjxK1d+fuzYnry8DRs2lJeXFxQUxH8ZNNjbukOv9Ly9wZcsFDApMb94ElekMNQbPb3Obrs2KmzCmqK2g8LSJhIMKNNGaQfM493V8TaTGZQTWrUs4rNxmWN81pHb9nnhqgbzTJrukOO4xx9//M9//vNPf/rT2bqcoT3mc+tyLXaVozG7kn0VJfeCu8z4eAOwiJQNTSeiUGNuJkt49YjwmLvQbXdPdYn00YUUH2A4jWDAxABDd2phk0nE4u2KLgRgduE4bvfu3WgHAMByVDY0jYhCQ3s4zqRZGxrKafRqp/TZTBFdSLEBhtMJBkwMMNSlEjaZRSwiuhAAAABYWD/V0k+LaGlp2b9/P5opDYJNz3ubM/RUk9OUKkxnVsD7BfD84I241V6B4zD3GyxqsG/UrXLbowsBAAAAECELTTAL2sbFzJllZcyF9gIAAADmDvhsAAAAAABlAwAAAAAAZQMAAAAAAGUDAAAAAABlAwC4Za4MD7/qcFy+ft3v96M1AABQNgCARUz/0NC/f/TRc489dujEib9cujQ5OYk2SY1g03OZrgGRfB1SAACUDQBgLmXNb3p6nt29u1ipNO/Z87rX29ffHy9unCYuQmadekgDZN6zJ2aOSYk7Ldj0MbJBH62fLDWh2vE2YuxnYJBIsDVatA75up1OUySL/Hp6m0DyfXIBAFA2AIA559LQ0H/09PzN7t25RESkViqbHn304McfCzJxI9j0XC1F91ijLuf8VE5T10DhjU2EbjuFdqYLvzQaSbbtSWSTXV+DnTc5p1vtDAxKMqbNIt+WhZwmrpWMsi1cIpvRucwaIkOTlabYIw8AAGUDAJg1Xn/vvaf0+lxZSpFS+bVt237V0zM0NCSldNvJ6ov6KAzt7Yawj0Puw9HrbTZTTJKt0eJ2W3iO03/nO/pY/0e6zFEfh0za+LzxwqahqT7pZrWaSm2aaqcRNlMZJCJydnXoovUQbPrWap+rqTqtOtN5euG1AWBhKBtEFAKw5Pm2Xn/o6NERUYyknLl6tev48Yfz88fGxqSUpBu8mniL1sEYYz6rp1bSJm6Lt15yjxg7Wm0CkbnTqtNZfYxpX5tsjvg/pNGZ1JnlW65pKrVur09SFLJKhBw4yTerdXZ16Kr5FNUmd2jjXmkXW/d0DBKR0OuJCBvBpm+kzoQN4jpqY0ewIrcAALjNymZ+Igr1iyC6DtGCYCmzJj//q3fd9aMjRwZFUZI1h44efTg3d82aNWq1OpQp3K/L8ehCYzKaugZdR5eTiMIpxFfr4jKH+3uOt7ilfj515hgM9caOLicJvR5jvSFO2BDJlUhEskT2o01W7egYE2PMZ9VNy2As3XZ3KAtvcbstvN5GZGgPj31F42v4ajhtALj9ymbKiEJZbB03g+48paBJGTCYaXBfXMBg6mjBeJuIFgTLk6ysrE3r1z9TVdVy5MjxK1d+fuzYnry8DRs2lJeXFxQUSHmSDtFMD7meYOlGhZJJG0+vs9uujRE2YU1R20HhykmX8Fl1YQ9J5tXO0GAcZpdMIemsPpd8ZzmZXvN5kzqPAADzp2wyiSiM/Z5yTXdja1eqEqkCBjML7ksMGHSn/zKT20S0IFiu5OTkbC4tNVVVvf3BB3VFReXl5eXl5YWFhUqlUsrQZCVL9ENBTpPJSaR1hx51odvulvlT4nF7fbLMU5BMQxjqtZZaS5ywMUY/57HjRxqzy0G1nMmZotqphE0mBkkaWkqjlyLXELojY2FCryep8wgAMH/KJpOIwmRuGJNJLzlKQoGFkW+RaKChLHgwxVdD8oDBDIP7EgMGdemFTVKbiBYEy1LcaEpLv3vvvTzPx8kaqXP3WT214Y9xLdUbiNrDSbxF60jlhdGYm40dtRzn2bcvWj7Vxz+cOf68od5IcUNRsp8biaExBqlq+u66JNVO8V2QkUGbkOwsxXhqQteLNopM4wAAZhGWlgMHDshfXr527Udvvz0cCERSPJ9//r033/zDH/5w/vx5KSVGMeisPsZ00n8OI0UOYvw6oR9Dko9DFz6lS50n/H/E1RtjM1pQnhj1oLAk9YxxNcXbTGownCn2OHrkMCYaltV7joh7vwDA8zOf+Ky6aXzGk34TLoA3Ysp+AYAFzvR8NplFFMo+q6FgvYY6DRFfrYscRH8ShZ02tR00pUMjMWAw8+C+RJ9v0mjBpDYRLQgAyACNudPqqc10VkGtx9pphscGgNs8GpVJROG00PP2Bl+CtkgnbWICBjMP7rulgEFECwIAMtQ2rkzDoGcQhggAmH1lQxlEFE6PcKiK0G13Z5A9NmBwGsF9iQGD7tTCJrlNRAsCAAAAS0/Z0FQRhTGrXU0167tZG8rc6NXqMrm2PGBwOsF9iXGOulTCJsHmZ0ISg4gWBAAAABYgnBQvloqWlpb9+/ejmZKrIJue9zZnugCH05QqTGcWwfsF8PzgjbjVXoGbol8AYIGDfaNmDqIFAQAAgIVGFprglrSNi5kzy8qYC+0FAAAAzDXw2QAAAAAAygYsBg4cOHDgwIHEYwAAAADKBgAAAABgoYM4GwBAOhhjExfPf374TS4rq6iuIbe0DG0CAFjIwGcDAEjHxOVLA2/+LPDpJxNnPvz0py/f+PwztAkAYCEDn81Sg+O4uJSWlpakx7fRB4C3aREx9P4fC0rXDgcmFNwN5v3k/O/e2vLs36JZAABQNuA26AYpZDjx74ISXmCBk1O8duJ0L10fpMsD40HxukIMBoMKRcjdq9fbOiPrTwo2fSN1zvZylHqOcxMRGR2svTV0HH5tmCIzWcOrYwo2fSPVkOW12H1VdFYfdm9asIyOjp48eXLw+rCC45QYYFiuiEEKsuDqwsKdO3fk5eVB2QAAbhX1PTv/+8QfVZOTY8M3LpbfubZGP88VcPmsEcHUGlEigk3Pc6YEcROb2ai1N9rqotLF7GL/PGcKDMwuJ06cuHzlM3+O+ubKDX5lrsgpiPC7aDn+WleyYLY4Jo4Pvf3OH0rXrdu1a+eUZSCDAQBpf/0UFBbseFAVDF7KVec/+YzmTj7isEmFYNPHbBwX/5r0epvNxHGcyZnkZGZIW8G1pi9S3dSstbQ58SYuOt4+8k7/wODV/IqrqrLxrHyRU0LWLFc4kVOOZ+VfVZUN5m/qH/j8nXf+MFfK5srw8KsOx+Xr1/1+Pxp+wYL1bMCsoOBIyXFccUll9Zb8/Pwp8zdatA7GGGMOrddHZOK9zYwxxpivwd5oE4jIbfHWM8baDQmZp4GmUuueqoih3UG1JmibRcX7778/Oj45sLLCr1iB1gAR/ArVwMqKG+MTJ06cmH1l0z809O8fffTcY48dOnHiL5cuTU5OosUBWMo/mogCjClGR5k/ow+7ljqkDdUM7e0GIg91SDvfc7zFLWkRnbXJkDzzrGNomtK1AxYQo6OjVz4bGFz5hSCnRGuAOIJc1rW88stXPhsdHZ1NZdM/NPSbnp5nd+8uVirNe/a87vX29ffLxU3Ys8yFfM1hoj5nmdc5VeYMzgo2fciQTZ5PZl+fJA0AMG0YC6qUCspdQTk5meRvZ4yx+q7IB1dn9bEI8fIlPnPmCL0eXTU/ZTaNubPB3taNt3FxcPLkSX+OOs5b87N/9E/57zf/wg1cPD8xNoo2XNpMKlT+7PyTJ0/OmrK5NDT0Hz09f7N7dy4REamVyqZHHz348ceCXNxEvsV80Z2wBZuetzeEv90cWgsfEhryzIm/q5KZCn+pddvJaCR7t0BmVyiPLpw/FBoY832KcEEAZohqE3+heAPV3KdS5ca7Z9z2biH6oXRrKzVEJptAZGhnPqvO0yuQ1p0u1iUuc8Y4TbxF25zRx1pjbiaLxY03cjEweH34ZlZhXGLlF1fdXbOqavvqqu2rq2pWV9WED7avrqpZfde2VZVfXLXpbvWZk+8NDw6gDZc8ozmrBq8Pp8kwvblRr7/3nvGv/1r+3VakVH5t27ZfnThhzssrKSmJ+zpx+UjfaBMM5jYLWX2R7yBDu8+qb+wWzLJ9sn1et7Zek/qbKWJKExE2DZ31Xr61WzBDswAwl+RtvLPs736wXhRVKlW8e8bXoOc5S+SniMtARGQJJemsPpeGyGfV8+Hp/jqrz2WOMRGXOQE9b3ET8ZzXwdrJHc5NOquPJX70YzJHMbQ7jB2teCcXAQqO/Mr4x6zh+bWPV2cRUZBJc4BJDDIxSAFGAZECQTYZoGOfjP7iJ+fHtTVowyXPhEJVmDagfHrK5tt6/aGjR/+/Dz+sVoZGQM9cvdp1/HhdUdHY2FgyRVKpdXf5iDy6hiZNkvTY76n2tD+7QkU0UWGjMVQaa9NIm6hxLFsBwC2RMnBYY3Yxc7zcYTGyIjGPSyZu4jMn4JIt0WSYapnHmMxyCWVoZwZZfVx4SxcoSgUnJkTYcIyNjAb++7NRv8iUSkXhyuz+a+P+AFtTmNs/ODbhZ5qyAtEfmPvanT+67xH7mZqDx36Nd2p2GR++OnSxL+mpwrLNqoI18pQgp1Qq0kmb6Y1GrcnP/+pdd/3oyJFBUZRkzaGjRx/OzV2zZo1arZ7J3UTHm8KTJjJB6LZTQ52GyFBvlDnDUxrHYBQAiwOnKXnUHFhWxHdaQcZExsb9wdHxwNiEOOFnYxPBmxPBCX/w5kRwdGxyZGzMn2ouy4mXnn+oMvpvX+f8j1d5flz5/EOVvzyxmCzPMytWFn7W+58XP3o37t9nn5zKziuY8gm5JWWTlZW1af36Z6qqWo4cOX7lys+PHduTl7dhw4by8vKCgoJkEiQU4qeN0x+JoX9TTuCUFRG67W63hec4jqvtoDTSBgCwuDC0szjwowRQUBTFIPkDwYkAm/QHJkU24WcTk4GJAJuYDE76J8cnAmIg7RIkW158+VjvwWO9B19rLEGDLkAxq8y6Y2uSVUDvuOd+ZVb2dK1New3inJyczaWlJqL/54MP6oqKiouLN2zYUFhYqFQqk/z84i1aB9MQNVmJj64F6jTxFrL6Yr6vnF0duuqmNL/kwqYkYRNdWN1p4hBrAwAASxdRDEqBNWKQOC4UWxMQyS9SIEiBIAVECgTE6Rm92Nn2zVdC4x97Dx38h90ZJcb6S147HH4RyZzAwFtPS9mOv1B5nGjfXnrtMN3/au83dtHAW0+/9NqpUFnpKltePPh/UYYVS2p5yvosWNZUbBnw/efo4JVISt7qtWs2Vc/A1EzWs8nJydGUln733nt5ni8vL4+XNSFvCsdxrdW+kP7QmF2+Bns4vZYc4R9ikcy15Ej8bZbMFAnddoouhpFuQCpaHD5tAABYtD6bQEAMkshIDJIYZH7GAiFNEzmgYGA6cTaSUNh76OCx3pf31dDh59reOp8ukZ7ad6z34LEjDVti9MrmfUcOHus9+IsXN6e+VMmTv963l4jo/ld7Dx7rXbephoguXThPRFfOnSIiOnt2gGjgfWcf0ebK85lWLNbyy/tqMqzPAvbbcGXbHpQnlG17kGa01eAM943KycmJnwkVxpUixC9ZoGHKzOnOxkf/RSID46MCXdhTGoDpsH379sOHD6MdFsIbgUaIUTZiwC+SXyS/KDJGgQBNihQQg5OBYEAMBkTmF5mYXtmceeWlh14hos37jjQ9udHz61f6iO6/bzcRlWzgiU71nTvvOZckcYCcfUSb9z2njbUniZK+Y38ceLKxpKyx6R8yvZeSew2bXzvVd+yPA09W9Bym+/c+dfyw8/TFxrXnThHVrDj3C29mFSPaOCv1WVCo15av2qC5fkEgolXlvHrdF2ZmBztiAgCiFBUVoRFuO4ODg2gEOQG/6A/S2GRgcmIioODGxscnJyb8Af/YmHLSPyH6A36RielHo7a8+HJChI00iBPi7FmqSJJ4hU4R0R0bNsbZ0z794ubDr/TFCqaMbqbswe1bXuk7I1y5SJeoZvt9ms2H3+i/cJ7OEhG/ruyU9z8zqhjR7tmpzwKjbNuDQ5fOErE77pn5aBqUDQAAgIWtbAJiICCuUIpMGSSOAv7JLIVIShbwT2Ypgly2QgwSE8XpmpWCXSJ4fvxKYuLAW06iU5cunKddsUKhrLHpWCOFo236jv2RnmzM7LIb11YQnfH1/NrXR7xh14Pbt7xi/7fvbz5DtPeRLfTGscwqlqAIZlyfhcWK/FUl/BeJ41Tq1TM2gr2+AQAALGxl4/dnZyvWF+evLy4oXq3OzVWtLVavXaPOW5m7trhgbXEhp8xhwWDmBrVPv7iZ6Pi/hWeAX+xs+/G7SRNL7jVslkZ5iIjO95+JqI2nj16MmqKKijSXk8fWEJH2vqeITh0/fIr2PqINCZ1T0nhT5hWLszyt+ixw1mv/av2We2/FAnw2AAAAFjSfD4453J+K0hQpxliQGGNBJh1zjBgRjY1OTMNiWWPTL6jtm6GxGyKivYdSJX5rn/Ol16TEms1biELi5pT9m5V26XDLiy+nnYhU8uQ/NRx7xP7aI8+/RgeP9dKuR+6nN44Tbd60MSR0Dr9BVFO6YToVi7X8GhEdzrQ+C5ysHNUtWuBY2jDblpaW/fv343O1WFj47xfHTfHIgdvI4cOHEWezEBgcHNy7d+/y/JAePnz4Yv5dcYkDF8+fOfnewMXz6cuWlG3csuO+krKNeISWPGU3PknzGYHPBgAwa6zerKtaR1c+dvddQ2NE8Xq9wWCwurpaoUAAwEwoKCrZsuO+KfeEUuXmFRTdpnX4Uqx5Q4StGG4DUDYAgCmUSoiRs+7T/WiTGTA5OdnT0+Pz+bZt27Zp0yY0yHRZkZu30D0x4QBesBDADwgAQEqu9bndH18hIrryMWTNLTI8PPynP/3J4XAMDAygNQCYO+CzAQBkjOTDGRkZkbbAHTl76nT/eJxrJy6zxMjZU6f7c6XSZ0+d7h9XlW6tqVDTyFn3hby4bONJio4vmSYcGBhwOp0bN27cvn17yh3UAQBQNgCAeeRzn/t07mZd1bqKstX9fbS5ah1JwTVRRaIq3Vq1LiRKVm/WVVXwpddO97k/JunwQl6FmkbOnvLR1pr4bD7iIwJoSTYfY+zcuXOXL182GAzJ9xIGAEDZAADmj9HxcaLc8KvVReuI6MpgTMywanWxmogqanThZTXUeblE49f6Tp3Nq6moqSK68vHpfirdmiTbKBGRuqJGV7E09Q3HcfDZpKHsxidoBHAblM2V4eF/fe+9b+l0a1auzM7ORjsCABJJpkty89RTZrvmHg85f9QVNbq8JTXVqqSkZMeOHan23QMffvghlhoBU9LS0pJm1vdMIoj7h4b+/aOPnnvssUMnTvzl0qXJycnbc2eCTb90NvAWbHqOMzkz+8GHfcvBAmJsdISI8lQxi2uNj48SkbqiLG6B9NWbpVnhH1+hdVVbSylFNrrW53a73afOjiyhhiooKHjggQdqa2shawCYU6atbPqHhn7T0/Ps7t3FSqV5z57Xvd6+/v54ceM0cREy661vWbIINn2ox7fpuThijMUYj7tS1AgR6VMYSLy7eBsx9mNK61NWqtGidbB2Q8xFQlnk19PbBGIOraUR2gbMB6s360KBM+uqdFtLk+YZ7/edHSF1RY1OJ4sjvtbnPnV2hNZV6UJsLV1VulVa7abvGl27KJXZMJqQTaUq3Rp6UVOhHjl7avE7bFasWLFjx44nnngCU74BmAemNxp1KSxrpCF2tVLZ9OijLUeOmIg0paU5OTlSZ85btA7GDKEe2uQkg2HOXR7ddjIayd4tmM0uZpbq0UidLrMmLqemroEauwWzWSOVaujUJDOiIdJZfVJxwabnTZWs3ZDi7jKqlXSVZDaJnG0WsvpiZE0rGXVRQ8YY1aNpsrbybU5zuwEPMJhbrvW53bGrj0Vey06N95929yeTPPHJ/dHX8pMJpZOaW8RUVVXhWQJggfpsXn/vvaf0+lxZSpFS+bVt237V0zM0NCSldNvJ6ov2uYb2dgORXm+zmcIuDiHiVdHbBNmrsI/C1mhxuy18/OmwkyOSwlvccgnR0FSvddu7p/RlaOoaKJTN56WGOs2URjSV2vBh0rtLJ2xS1Upmk5xdHbpoPQSbvrXa52qqTnsLOk8vvDYAgOXCzXNNN//yvBgYxfYsYJaVzbf1+kNHj47INos/c/Vq1/HjD+fnj42NSSl2t7ZSk1DSbfHWM8baDUQm3tvMGGOM+RrsjTYyu6RXzKG1tDmJyNxp1emsPsZcZk1cZoHIJPlMGGM+q04uIeo0hnpjRtKmUuv2+iRFIatraiPOrg5dNZ/27vjIeFFUb6Wtlcym0OuJCJsUnqaO2tgRrMgtAADA0pc1vQ/miO5s5emJ/+KvX+0LBAJoEzBrymZNfv5X77rrR0eODIqiJGsOHT36cG7umjVrpIW7iIjCHXYMOmtT2LnhCffTHG9xu72+iA+mtoMSHBHxmYk8MlOxEoIoQ2ljqDd2dDlJ6PUY6w2pjUT0Smu1L6I1Utydj4WJ6K2ktUpqU0a33R3KwlvcbguvtxEZ2qPSLxxfw1fDaQMAWA6MX+5QldxNuSouR6vKzr/RZx4eHk7vuREEQa/Xo+mgbDIiKytr0/r1z1RVtRw5cvzKlZ8fO7YnL2/Dhg3l5eWR9aamHhGS6wDW3srbG3xxPpiUmZMO/QhROVDbQRlKG0+vs9uujRE28UakS/usOpl7JKPxrjS1SmZTTsSBxXxWnc7qc5llJ/nqSAP5vEmdRwAAsMTgFLkseF2pJOXNExQIjN0cHhoaCgaDkQyZiJiIV106ttlscg2k18dPPIlkAEtf2RBRTk7O5tJSU1XV2x98UFdUVF5eXl5eXlhYqFQqpQxNVrLw0QlRTlP85CitWxp0imiX0EiM0G2PxM1QuOOPzyzTFuH8QrfdbXSEBYEjQ6+N1lJriRM2yY1ozC4H1YaneE15d1MbTLCpqUyrlyLXELojY2FCryep8wgAAJYYK9Y+c/PK+eDETXZjZGR85PTVRkmgRHC5XFMa8fl8Op1O8vTodDq73S4IgtwCYyyShzFmNpvR8ouXmazUl5OToykt/W5e3vj4eH5+fkFBQUTWSL22j/R85MkzOhhRq6x4u88aPa2z/t9aC89ZiEhnDM8G0pibjVwt16Gz+lyxmX0uc7tDy/GcJZJf6LaTtdMgc8fUtnYLUz2VhnojUexQVLyRjrUN4ZdSlfVWn8s81d2lMdgtyColtxmpc1InDF/tCV/P6JDmZAnddre2GS4bMPsMDg6iEcCCI/9bnPJXYzcGPZ/ft/6OqsLCQoVCIffZSOJGEASeD/3k0+l0aew1Nze3tbW1t7ejaZckXPrRypaWFiwHOQ8INj3vbWYZTuN2mlKF6Sz894vjOExtWLB0/e73n6t5kVOiKW4jShYoHhHqH//K8vyQJv0SG7v8rznB12/8xesa7vwf/+N/rF+/PisrK1HZcBzncDgMBoMgCI2NjXJfjjxFym8ymerr63mej6QnlgILlvSdnQINtBDQmDutntpM1yCu9Vg7zfDYgFmHMZYtjqEdbi/Z4hjEf6LYIiIFG1u9Kl+tVstljRydTmfIePW0pqam1tZWtO2SBDtiLhhtIy0wmFH3g58UYE5YXVgojg+NZ2GbxtvJysBQ0SpsAJ7sq49TsNnrszQaTUNDQ3d3Nxp26QGfDQAgxM6dO7ImR7KD42iK20W2OJ41eWPXrl1oCjmqdd8au95/navJzc2Vh3XG4Xa7pbjgDPWK2Wy2WCxoXigbAMCSJS8vr3Td2qLRTxUMK6Hdjq9jFiga+7SsdL0qdntRQERi2clA6c/Xr18vbeOTFIfDwfM8x3FerzfuFM/zbrc7blKVVARtu/TAaBQAIMquXbveeecPdPPstbzySQX61/kjWxwvGvtUnafasWMHWiORwsLCwsLCpKciMb8GgyFV7LM8XR4jbDAYIqE5Go0G4cNQNmChc+DAgaR/AUjDnj1f/uCDk9zlc5PZ+WM5qyYUqiCnJOLQMnMAUzAxRxxb6R/K9t+4o3Q9ZA0AUDYAgNln584do6OjJ0+eHLx+oZAjpQKyZq4QgyzIqGhVwa5dj2AQCgAoGwDAXJGXl/fAAw8sxppjzSQAljmIIAYAAADA0gE+m6VGYvB/S0tL0uOFU8MFCH70AwDAMlI2jLGJi+c/P/wml5VVVNeQW1qGdlyYXfICjCBeFCMFi0J7AQAAmDVlM3H50sCbPxM/7w+Ojn/a+8kd//OH+cVr0ZQAgNtFnGSPvMRkQACWITOJsxl6/48FpWuVq4qyVhYoBd/53701a9URbHq9TZj/sgAAAABYEszEZ5NTvHbidC9dH6TLA+NB8bpCDAaDkT3l9RznjuY1OjLdwHp66PW2TtcUu0KGa2J0sPZWjiNreHtswaZvpE6XuVvPWdwxRXRWn2sJ7TUp/8GKH69gCSN/vFtaWvC0A7CcmYnPRn3PzhujAeXkpH/4xsXyO1fW6OPVAYswJ7KGiFwZCBCXz6rTWX1SHXRGrb0xzqVjdjHGGAtlY4wxF7bQBgAAAJabsskqKCzY8aAqGLyUq85/8hnNnXzEYZMcwabnJMLDRXEpkZd8yIeSWCKO6MBTQtkUVDc1ay1tTrzlACw9DsiQv0TLAABlk3ExjpQcxxWXVFZvyc/PjznntvBcBJOTyMR7myUPjq9B8pvEpXyZt2gdYfcJERE1hhMcWq8vbU1MCWVTYmh3UK0J2gYAABYbV4aHX3U4Ll+/7vf70RogPTNcz4YjCjCmGB1l/sn4cwmxKq3U0cF1hF8ZfUSe2BTSWeNGrbTUUcuRg7Ub2tvT18Sjs3ZmPOJlaLK2NtqETrzvACwpEGeztOkfGvqPnp7nHnvs4DvvfP3uuytKS9Ps+A3CCDY9b9FmGuzKcfolE2g6Q58NY0GVUkG5KyiTxysx8iY2JdHX0s4YY/VdYa/PrKExdzbY27rxxAMAwKKRNb/p6Xl29+5ipdK8Z8/rXm9ff//kZOhHdSRyIcKtzpGVTbPVywYf5NdJ0i3FTM6VvxBs+pg66VPV1GmSXyBmqm/8zN8Ym6kMCrbGRFnjNEVyya+ntwnEHFpL4xKZXzxDZaPaxF8o3kA196lUuVNm1rrj41viUrRue7dARCR026VYGZNNIDK0M59V5+kV0huPLzuVtmkmi8WNbwsAAFjwXBoa+o+enr/ZvVvqadRKZdOjjx78+GMhLG7mdCJI7DSU8A9yn9VTmyBuNHUNFOqMSOi2U0OdJnJsNEZOxdhpsPMhM4JNz9WSI/xz30Fd6TqpOJvJDBI52yxkbYqXNa1klLkSjOEruswaIkOTlZZIMOoMlU3exjvL/u4HWx5/MpPNadt9Vk9tjKaMS2lyaKXYnEavNtTooVgd3t7Qmf4pbU8sG5HGvMXttvDxT6Ch3WHE9wUAACx8Xn/vvaf0evkP6CKl8mvbtv2qp2doaChVqZCHQ7DpQ9//gk0f7ghSzV8JuzJsjVLHkdr3ozG7fFZPa9xpmbTxeWOETUNTfeQneEyJSm34sNtOVl/Uu2Job9elFzZJbcoMkrOrQxeuRPi+W6t9rqbqND/86xqm8iUsbWVDRPn5+YWFhdnZ2fEiN1Ewa0KqOiqn41IM7aHD9napeHts9iRSOnIioWw0j2z8K+aUoT3GrsbswmxvAABYeHxbrz909OiIKEZSzly92nX8+MP5+WNjY6lKad1eH5HQbdcaqcspaY1qnoiSzF+Jn+Bi7gy5f9J1C5pK6RJJ05xdHdpKjdx7Y6g3JpE2zq4OXahWdne4RAT5XJyYmb+pbcoMCr0eubAJL+IWd42O2thBrGS3tShZFDtiOk1cbUdMyhJbUQ8sREZHR0+ePDl4fVjBcUoF2uM2IwYpyIKrCwt37tyRl5eHBlkmrMnP/+pdd/3oyJH/3yOPFCmVZ65ePXT06J68vDVr1qjV6lSl6o2eXoHIq61vqm5tcxLf6wkrh/j5K9RxNHaCy8w7FkO9sbbL2c73eoz17VER0qkh0tQba1u7BbNZI0kWS3w/FlYkyXs5waZvjBE2cpvJDcbSbXe73aFcRMTribnM7Yy1h3rYRludy6wh4qt1nl6BDIu9d10UysYQfgMAmCdOnDhx+cpn/hz1zZUb/MpckVMQYZvM2whTsmC2OCaOD739zh9K163btWsnGmU5kJWVtWn9+mcYazly5GvbtnUdP74nL2/Dhg3l5eUFBQWpSvHV1OVzej3VTZq6Bk+b00faenPS38V6fXXnDH4mC70eXXVTEmnT2uvstmvrXWERIhcUOknaSBUQbHreGxFSWrc9pHumvHKCzaQG4zC7mDnWexPTWpGhL5/Xra1fAk4D/BQFIJ4Xm1/qHxi8ml9xVVU2npUvckrImtsNJ3LK8az8q6qywfxN/QOfv/POH9Aoy4ScnJzNpaWmqqq3P/igrqiovLy8vLy8sLBQqVSmKqKpa6DWVk9DnYY0dQ3U1UURl0jC/JVkMbNTDMk4TbxF25xEhxjqtZZai7beEBEhxmhUcOzgkcbsclAkELnJSpZo8C85TSZ3amGT3GasQU1l0tCemJsIRy93R8bChF5PovMIygaARc/777+/feeugZUVfsUKtMYCxK9QDaysuDE+ceLECbTG8hE3mtLS7957L8/zU8oaqWMndyiKV1NJHZ7qSMhJ/PyVhAkupDE3GztqOU5vE2KmoUQDX1qrfSnWiDHUG8kYFTbyyUmJcTEGqS56mxAKSo5UpJbqdamETYLNz4QkBil5aE+MpyZ0Pd6idUh3I9M4i/2XEGMszenDhw/jQ7W42Lt374J+4LgpHrnby+jo6JF3/nA1H7JmwXd1wfGiG+ce2fPlxJibBf6MLYJe4bY2YEtLy/79+/Eu3DqCTc97m6exeaPTxLVWL5YQ1vTPydRxNkVFRXhEFguDg4NohFvh5MmT/hx1nKz52T9OvZp70fqc+544V1BUsiIXwa3zwaRC5c/OP3ny5AMPPIDWACARjbnTquc5U8ZrENd6rL72pTEzJwtvPwBRaXh9+ObKDXGJlV9cpVAQx3FERNJPWY6Ihf4GGWOM8lcpz5x8b8uO+0rKNqIZ54fRnFWD1y+gHQBIqW0igcMZwJhrydw5lA0AURQc+ZXxi082PL/28eosIgoyae4xiUEmBinAKCBSIMgmA3Tsk9Ff/OT8uLYGbThvTChUhQjsBgBA2QCQBqWCE7n4yESOsZHRwH9/NuoXmVKpKFyZ3X9t3B9gawpz+wfHJvxMU1Yg+gPzUL22fU/3nTl18FjvUm3/8eGrQxf7kp4qLNusKlgjTwlySqUC0gYAAGUDwBTEd5ZBxkRG4/7gxKSYlaVU5WSNTQQnAizfH7w5EZyc8I+MjfknJ5Pa8px497UXnou83Lylpum1X6OJU7FiZeFnvf/pHx2JS8/OzS/mt035TgEAwHwom9WbdVXr6MrH7r5raO1p4/V6g8FgdXW1QoH5+beNoCiKwSx/IDgRYEEWmBRzJvxswh+YCLCJyaDfPzk+sUIMpIsyhqDJVFQqs+7Yqj9/4v+NS7/jnvuVWdloHwDAnCgbSamEGDnrPt2PRpw7Jicne3p6fD7ftm3bNm3ahAa5LYhiUAqsEYPEcaHYmoBIfpECQQoEKSBSICBOy+bAxfMvffMR6fj+vU994x9eziRRzi9//NLxw2/EZV4CrKnYMuD7z9HBK5GUvNVr12yqxnMIAMiQaXsCrvW53R9fISK68jFkzfwwPDz8pz/9yeFwDAwMoDXmn2AgIAZJZCQGSQwyP2OBkKaJHFAwMI04G0ms3L/3qYPHehv2vXj88BtH3+pMk0hEB4/1HjzWu3lLKEL56Fudxw+/0bDvxYPHel/+xZEl1dwcV7btQXlC2bYHicPAEwAgU255NEry4YyMjEi7k42cPXW6fzzOtROXWWLk7KnT/blS6bOnTvePq0q31lSoaeSs+0JeXLbxJEXHl9tbNTAw4HQ6N27cuH379vz8fDy786dsxIBfJL9IflFkjAIBmhQpIAYnA8GAGAyIzC8yMa2y6Ttz6vmHKomoYd+LDz/Z+PavDxHRPfc9QkRrN1QQUf85of+ckJgoFW/Y92KcQenUh8ecDz/ZWFK2cck4bCTUa8tXbdBcvyAQ0apyXr3uC3gIAQDzqGxCfO5zn87drKtaV1G2ur+PNletIym4JqpIVKVbq9aFRMnqzbqqCr702uk+98ckHV7Iq1DTyNlTPtpaE5/NR3xEAC3nd4sxdu7cucuXLxsMhjS7wYHZJeAX/UEamwxMTkwEFNzY+PjkxIQ/4B8bU076J0R/wC8yMe1oVNI4G3lk8aWzvjsq+MRE6UASOnIeffq544ffiBNMS6nNy7Y9OHTpLBG7457deAIBALdD2YyOjxPlRlwzReuI6MpgTMywanWxmogqanThb2l1Xi7R+LW+U2fzaipqqoiufHy6n0q3Jsk2SkSkrqjRVSxrfcNxHHw2t0HZBMRAQFyhFJkySBwF/JNZCpGULOCfzFIEuWyFGCQmitM1u+/VQ9pd0W77lz9+KTHx6FudRPTZhbO0K6aDLynbKM39lqJtJOfNUmrzFfmrSvgvEsep1KvxBAIApsV8z7gZOXvKHSE0XSo3Tz1FtvH+06HgHknfbF6OX3YlJSUGg+GBBx6ArJlvZeP3Z2cr1hfnry8uKF6tzs1VrS1Wr12jzluZu7a4YG1xIafMYcFg5gYfffo5InL+279ILwcunv/lj19Kmrj13geJ6MNjoT2A+86cisiggYvnI6Ykf88SY732r9ZvuRePH5C4Mjz8qsNx+fp1v9+P1gDpmZNZ32OjI0TqPJWKKOpcGR8fJVKrK8pW98dMAF+9WZoVPlikq6raOnrqQvJsdK3P7e6jUDDO8qKgoABzo24jnw+OOdyfitIUKcZYkBhjQSYdc4wYEY2NTkxDpJZtfPkXR1765iPSWBIR3b/3qVSJDftetL/2ipS4eUtNRNxEJkxt3lKzxOJsQt9NOSo8e0Cif2joP3p6nnvssYPvvPP1u++uKC3NycmZHdOCTd9InYtkG8ip7oS3aDPaJYrj9FbfUrjnWVM20biZdVW6vLPuZNu2jPf7zhbXVMhGlELS5NTo1pqKKt26sGPG+3lxdYWarnzcd41o7OzIuoqKmg1n3afOxmY75SM+qmdGzp5aNmvjrFixYseOHXfffTfWs7mdPpvgp65j70k+kvR6RZWwHaZ21+6kSwZHhpOmTHz4ycbEkaZv/MPLS1LNAJBU1vymp+fZ3btzicx79vyvt9/+/xBtlokbPce5o9mNjmlsbx0lbCRUXG4z3mKMGIpTRoJNz1soKhtkdnTRVKeJq+2QW9frbTE2YuxnYJBIsDXGyRqniav1SFnk19NZfS7m0HKNtrqlq22mrWwk14mcyGvZqfH+0+7+ZJInPrk/+lp+MqF0UnNLn6qqKnyv3XYKikq27Lhvyj2hVLl5BUUlaC4AZpFLMllDRGqlsunRR1uOHDERaSLiRjcLDgiXzxojUSI2BVv8htmaugZq7BbMZg2R0G2nhs7ItYVuOxmNZA+djbdjqmTtfMi1wgwh/WFyUmolloFBAxGRs81CVl+MrGkloy6V4NM0WVv5Nqd5JhpwMQBPAABTsCI3r6RsY7mmKv2/krKNKxJ8NgCADGGMvfvuu3GJr7/33lN6fa4spUip/Nq2bb/q6RkaGkotCGx6TkJvE5KlRF7yFnf6amnMLp/V0xoyE5E29m6BiMjnpYa6GGHT0FSvdYfOxtip1BIRUbedrL6oojC0p1MXmRgkInJ2deii9RBs+tZqn6spzfqWmroGnadXWKrPEpQNAACAOefAgQMHDhxIpWl+97vffelLX/r7v//7uFPf1usPHT06Ipt7eObq1a7jxx/Ozx8bGwsluS08F8HkJDLx3mbGGGPM12BvtAkJKV+W3CaMMZ9VN2XVNZVat9eXLMHZ1aGtjBU2dRpDvTGJEnF2deiqeSK7W1YigvwWomIrI4NEJPR6IsImReBQR22M0Eu8JygbAAAAYDZ45513du3a1dzc/MILL/z5z3+OO7smP/+rd931oyNHBkVRkjWHjh59ODd3zZo10uqwREQ6q49FaDcQecIdOcdb3G6vLyHlqM7adCsDMYZ6Y0eXk4Rej7HeECdsiORKJCJZWqtDo0hhORKD/BYiYitDg7F0292hLLzF7bbwehuRoT1k2qG1NIa0DV+9hJ02UDYAAABuj6bZuXPn9773vaampp6enq9//etcwjYaWVlZm9avf6aqquXIkeNXrvz82LE9eXkbNmwoLy9Pt1ppgtaJS9FNq6JCrydejhjqjZ5eZ7ddGyNswpqitoPCSkS6rs+qC3tIko4sJb9sZgbjMLtkCkln9bnMspN8deTOfd6kzqOlQRY+XQDIKbvxCRoBgLnWND/4wQ/Gx8dfeumlr33ta1zafcFycnI2l5aaiP6fDz6oKyoqLi7esGFDYWGhUqlMVUTrtsSFx8alaN2hmFyh2+6mhrSVdZp4i9bBNPFeG21trcXoYHIdEg3TdZq41m7BHFYVGrPLYeI4k4O1N1mJj0b+ktNkovb2VMImE4MGaWipNRpknHgHJmpvN0gmtc2aiFprWqoP2NTKZnBwEJ9DsEz48MMP9+/fj3ZYLLS0tOzduxftsFiQ4mlaWlqIaP/+/V/5yle4zPY6zcnJ0ZSWfjcvb3x8PD8/v6CgII2sIaJ2n1XPh03rrD6XOT7FoeV5zkKkM4YmEOl5i5uI57whLeG28Jwl4v9JIhkM9Uai2KEoa6dBdra2tVuQ+UsMUhX0Vp/LR9G6kNHBiFqTCpuMDZrDZ5NLG77aE76e0SHNyZJpnKUIxxhLc7rrd7//XM2LnBKfyYWPkgWKR4T6x7+yoB84bopH7rb3lFA2i0vZJL5fC/wZWwS9wm3dWf3AgQP4DM4Awabnvc2ZLuXjNKUK01nUn/0IiikldrY4hodmUZAtjuH7HABw656VuWD//v379++Xjo8cObJjx46tW7fa7fZgMCjPhvafGRpzp9VTy5mcGYnXWo+1cwkvQTyVslldWLgyMISHZlGwMjBUtAobgAMAFjp79uz54IMPfvKTn7S1td1zzz1vvvkmNM0saBsXy9Bnw9hS3lphamWzc+eOrMmR7OA4npoFTrY4njV5Y9euXWiKueDmuaabf3leDIzi+xcA6BuwuJVNXl5e6bq1RaOfKlgAjbVw30UWKBr7tKx0vUqFTQTnQNb0PpgjurOVpyf+i79+tS8QwGcBgNnUNydOnGhtbX311Ve/9KUvoUHAnCsbItq1a1e+akXJzbM58NwsSLLF8ZKbZ9V5qh07dqA1Zp3xyx2qkrspV8XlaFXZ+Tf6zMPDw+l/WQqCoNfr0XQAyEmzBjHHcY8//vif//znn/70p2goMB/Khoj27PnyHWtLim6cKxq7kCveULAAEXyGtxemYAFVYGTN2IU1N8+VrSv58sMPo1HmAk6Ry4LXlUpS3jxBgcDYzeGhoaFgMBjJkImIiSybLh3bbDa5BtLr9VwskQwALKPPGsft3r0b7QBunUxX6tu5c8fo6OjJkycHr18o5Eip4NB2txcxyIKMilYV7Nr1CAah5o4Va58Z8v7LynzG3Ri5MT5y+mrj9jtjHn6XyzWlEZ/P19jYKOXU6XR2u72urk6j0cgtCIIQyQMAAGDOlQ0R5eXlPfDAA7dd1C+oEDOsnLEsyP8Wp/zV2I1Bz+f3rb+jqrCwUKGIOjv1en1EmvB8aAV2nS7d6u3Nzc1tbW3tyRceBQAAcEtg3ygApiAnJ4c4EilrKOdvN27cqFarky5lxvO8w+FgjPl8U+ygazAYiMjpdKJtAQAAygaA+UbSMQo2tnpVvlqtzspK7unU6XSSZMmEpqam1tZWtC0AAMw62BETgIxgnILN3udFo9E0NDR0d3ejYQGY+tPH2MTF858ffpPLyiqqa8gtLUObgMWtbOImCkZepppAuNzqA+Ya1bpv3fD+r+tcTW5ubpp9+NxutyAIGo0mQ71iNps5jksfkQMAIKKJy5cG3vyZ+Hl/cHT8095P7vifP8wvXotmAanAaBQAUyOWnQyU/nz9+vU5OTmp8jgcDp7nOY7zer1xp3ied7vdidE5DocDbQvAlAy9/8eC0rXKVUVZKwuUgu/8795Cm4B0sEXFQqvwomtAtFh6Dhw4gPdoEZH0/cKncum9p4Pvvn3lf//jf//g2+effdzzxAPv/es/i6IonbImOD11Vt8t1cBn1WVsInxxoyN6HH49VeboRXxWnc66b9ZvZPk9JxHgswEAALCgUd+z88ZoQDk56R++cbH8zpU10eUxza54OTKfmz26QtdtN8iViC/5rtuxmY1ae6NNoAVyI0sMxNks+voAAMAS76gKCgt2PKj4XWdfrjr/yWc0d/LyNaUS0ettnS6zRrDpeW8zazeQYNO3VbraDUQk2PS8xR3yibjMFPtSQ7ZGi9tNPGfRWX2d1Bh7MjM0ZpeP9I02wZCmSHVTM/FtTnO7Ae/vrAOfDQAAgAXfV3Gk5DiuuKSyekt+fn76zFq310ckdNu1RupyEpHPS9XSMpom3tsc8qw02BttX459KRCZO0NeE5dZ02jRSsNKDq3XN63qaiqlOqTD0O6gWhOWtZoLKbzwqyj3hbS0tNx218hCqw8AACx5OKIAY4rRUeafnDJzvdHTKxB5tfVN1a1tTuJ7PdpKyX3ioY4OriOc0UjUcVT20kck97JoqaOWIwdrN8zNiuGGJmtro03oxNs72zoYTQAAAGCBw1hQpVRQ7gpKPT8xAl9NXp+zy1PNa+oaPF1On1dbHx70iYnLbY8NFo4fGWpnjLH6Lo7juGn6VoRejy7kJUqHxtzZYG/DslZQNgAAAJYbqk38heINVHOfSpU7tWCoa6DWVk9DnYY0dQ3U1UURlaF1W9pkIiXuZYjwQJLJJhAZ2pnPqvP0CplX1mniLdrmjOJyNOZmskixPADKBgAAwLIhb+OdZX/3gy2PP6lSqTLQC5XkpoY6jXTY4amuC6uMdp/VU8uF0NuaYl8KktYwdtRKryw8x3Ecx9sbOpPqFD1vcbstvOTRcYdyc1xrtY8lRgbHZI5iaHcY8f7OLthdAQAAwCIgXeCwxuxyxcoFZkg8DOVkZnnWuJdSCSbF1ZhZ+vgaF2PRUrLjqTO7zEkrm3AjYCbAZwMAAABMidPExaG3CWiWhQh8NgAAAMCURF05YIEDnw0AAAAAoGwAWE5cGR5+1eG4fP263+9HawAAAJQNAIuY/qGhf//oo+cee+zQiRN/uXRpcnISbRJGsOkzXekDQQkAACgbABaErPlNT8+zu3cXK5XmPXte93r7+vtnUdzoQ6GIJmf0OMW6YIJNH9UG8heCTR8jG/SpIhzlEZAmp15+MsZ4vM1UBgVbo0XrkE9vdZoiWeQX09sEYg6tpRHaBgAAZQPA7HHgwAH5DqZT7oxxaWjoP3p6/mb3bmlpMLVS2fToowc//liYPXEzjb2CNXUNZO+WpIHQbQ+t1iEdG42RUzF2Gux8yIxg03O15AgvtuqgrnSLg8XZTGaQyNlmIWtTjKxpJaMuasUYvpzLrCEyNFkp2apoAAAAZQPA/PD6e+89pdfLVzwtUiq/tm3br3p6hoaGQg4SuetEbxNC7g6ZgyP+Nen1Npsp7XrtGrPLZ/W0xnk4ZNLG540RNg1N9Vq3TNpESlRqw4fddrL6ot4VQ3u7Lr2wSWpTZpCcXR26hsgCaIJN31rtczVVp7aqqWuY3kquAAAAZQPAbPJtvf7Q0aMjohhJOXP1atfx4w/n54+NjaUqFbc/sClhM2FyW7z1STapidcQCXsFR9KcXR3hDf5C3htDvTGJtHF2dYQ3r7G7wyUiRJdM5Thevr57apsyg0KvJyJsBJu+kTpd8au0dtTGjmBlsv8xAABA2QAwV6zJz//qXXf96MiRQVGUZM2ho0cfzs1ds2aNWq1OVUpLHdJQkqG93UDkCXfwHG9xSx27Tj6GMx0M9caOLicJvR5jaIO/yLCUXIZEJEtrtS8iNxL355PvBeiz6uKFjcxmUoMyuu3uUBZp/Xi9TVr8IyTwIvE1fDWcNgAAKBuw1OBuHy0tLS0tLYnHEeKqmpWVtWn9+meqqlqOHDl+5crPjx3bk5e3YcOG8vLygoKCVDcYvz9w2s2EU5J8r2BDvdHT6+y2a6PCJqwpajsoLG2kK/qsOpmHJOloVfIrJ9pMZlCO2SVTSDqrT75yPPHVEdHk8yZ6jgCYEsbY+IVzFw62XTz007H+i2gQAGUDFtY31G1k//79+/fvTzyOkFjhnJyczaWlpqqqtz/4oK6oqLy8vLy8vLCwUKlUhnKEO3uh2y4N6MTtD5x8M+EpSLlXsKFea6m1yIWNMRoVHDt4pDG7HBQJRG6ykiUa/EtOk8mdWtgktxlrUFOZViw5TeHQ5e7IQFhytQbAVExcvjTw5s8Cn34ycebDT3/68o3PP0ObACgbAGZOTk6OprT0u/fey/N8vKwh6gxvFdzo1YZ8E7H7A7cnbiYsY1p7BYe8NiQfipINbCXGxRiki+ttQigoOVKRWqrXpRI2CTY/E5IYpOShPVFPTehivEXrkG5FpnEAmA5D7/+xoHStclVR1soCpeA7/7u30CZg4f6Gni4LrcKLrgGXOVP6bA4cOIBWyhyfVRed2T0lDmPswNwskPT9wqdyUZP0PR189+0r//sf//sH3z7/7OOeJx5471//WRRF6ZQ1QaHf6lMWWoghI3RxwWqz/YQzxsL3Z3REj8Ovp8ocrY7PqtNZ9816Wy2w5yQCfDZgGTHd9WxAejTmzmQL7ySHq/VYO83w2IAZoL5n543RgHJy0j9842L5nStr9JFToRgvmapwLa2nbBpLXsVnNmrtMYtjLvm2igBlAwC4BW3jyjQqeul+i4I5J6ugsGDHg6pg8FKuOv/JZzR38gpFus5LH11KSur9BZs+LAPi1pdKWG7K1igNEHN6m5BwMiOmtaLVzC6RYsmrOKqbmrXLc3HMBa1sEue20G2dWZO0PgAAAOa8r+JIyXFccUll9Zb8/Pz0maV1k4Ruu9ZIXU4i8nkpFLset77UlxOWmzJ3hlwaLrMmbm2qDJnWilYzuwRRZstDGdodVGtaftoma4HXL+l0lbmWU/N/UQAAAOm+mYkCjClGR5l/6o1N6o2eXoHIq61vqm5tcxLf6wnHrnuoo4PrCGc0EnUclb30Eckdi1rqqOXIwdoN7e2ZVzWuVGvsFeNWtJrZJTLH0GRtbbQJnfDZAADAou4F4aldcjAWVCkVlLuCcnKmzMxXk9fn7PJU85q6Bk+X0+cNL5QQv76ULu1yU/FrU2XGtFa0mtkliDJeREFj7mywt3VD2QAAwCLuAud2OiS4Lag28ReKN1DNfSpV7tS9eV0DtbZ6Guo0pKlroK4uikiAuPWlki83FR7liVubKol7RrbwQWRVg2mtaDXlJVKQcsmrZNqmmSwW93J6WrLwgQEAALDAydt4Z9nf/WC9KKpUqgw680pyU0OnRjrssFf7whKg3WfV82HPm87q81kb5S9dZo3G3GzkarkOndWntfCcJXwmmYho9zXoQ1mkTAYiorhScVeMWaE7IXMCet7iJuI5r4O1kzucm3RWH0vUNTGZoxjaHcaO1mX0tCzomJLbEvKCOJvlTEtLy/79+9EOeL/w/YDPIFi8zwlGowAAAIApcZriY66mNVF7gVxiWYDRKAAAAGBKDO2MtS/6SywL4LMBAAAAAJQNAMuJK8PDrzocl69f9/v9aA0AAICyAWAR0z809O8fffTcY48dOnHiL5cuTU5O3pI5waa/xaHzW7dw+xFs+kzX70CoAQAAygaA2ZQ1v+npeXb37mKl0rxnz+teb19/v1zcxIiMW9QcMyku2PSyrj/RQkxK3OnYskT6pHGL8qBGkzPtLWdmkEiwNVq0DvmiZU5TJIv8enqbQMyhtTRC2wAAoGwAuGUuDQ39R0/P3+zeLS0NplYqmx599ODHHwux4ua2+j667WQ0UnS5sHg0dQ2Rs0K3nRrqNKnLRncSbrDz4e36askRXqfOIW3Ck3llEgxKMqbNQtHl5YmcJq6VjLqoIWP4ii6zhsjQZKXlua8fAADKBoBZ5fX33ntKr5eveFqkVH5t27Zf9fQMDQ2lKajXm0x6uZtDtqUvH1oMNLrHb7JNhpNsAZxgIaxVmurDK6HGWEiUNj5vvLCRlY3VQ5VaIiLqtpPVF3WtGNrT7eudiUEiImdXhy5aD8Gmb632uZqqUxvW1DVMb31WAACUDQAgCd/W6w8dPToiipGUM1evdh0//nB+/tjYWLqSbk91p+TlMHbUmpxEJj68pa/PKjknNGZX2BOilTwS8k2GE/cHTrQQccIY6o2SmpBbkIsKabF4Z1dHeFvAJGVjcHZ16Kp5otBy8fF3Z+Ej40VRmZWRQZK2uwkLG8Gmb6ROV/xaqh21sSNYmexqDAAAUDYATMGa/Pyv3nXXj44cGRRFSdYcOnr04dzcNWvWqNXqdCUjXbeh3kieXoE8OvnwS6wPpraDEjwSnnDvzvEWt9vro6QWwqNLydVExNNSb+zocpLQ6zFGtgVMXjYiWVqrfZLcSLrlnnyHv4jMytBgLN12dygLb3G7LbzeJi3pEVZ84fgavhpOGwAAlA0At0pWVtam9eufqapqOXLk+JUrPz92bE9e3oYNG8rLywsKCm7RuJ63N/jifDAp1ANLPgYkRHVBbQellzaeXme3XRsjbJKUlS7qs+rCHhJtGquZVCbBYBwRvxXzWXXxW+rw1ZF28XmTOo/AMoExNn7h3IWDbRcP/XSs/yIaBEDZADBzcnJyNpeWmqqq3v7gg7qiovLy8vLy8sLCQqVSSQl9f2Sz3yjhmJJINqHb7o7160RTKLrJcOL+wAkWhG672xgN7g07SpJpCEO91lJriRM2ScpKaMwuB9VyJidRk5Us0chfcppSTdTO1CBJQ0tp9FLkGrLWFHo9SZ1HYJkwcfnSwJs/C3z6ycSZDz/96cs3Pv8MbQLS/ShdULX5p3/6pzQp3//+95fMRcHiEjea0tLv5uWNj4/n5+cXFBREZA2l2uw3uiWv0cHMGqJ2h5bjOQuRzhiaBNQc3kc4kkKyTYZdCfsDx1sQuu1k7TTI/DK1rd3kilqQD/4Y6o1EsUNRCWUFmb/EIO2IrLf6XD6KVoSMDkbUmlTYZGzQHD5rTuqE4as94esZHcwQ0TjNcNksX4be/2NB6drhwISCu8G8n5z/3Vtbnv3bJXJvKWLNwNJRNteuXZsyZWlcFCw6cVNSUpL8nMbsYub4xHhlkWRDGE2yHWJkuRLMJlhwueJOG4iIkm88Ez4bqXOysmbZYFD0thIq4pKPGYVNTcMgGZqsrXyb09yerEqJ7elss5DVZ8BjuIw/gMVrJ0730vVBujwwHhSvK8RgMKhQhMYc9BwX9XqS0cHaZ/1h0ettIfFxC0IkXM+payjP2cpxFPk6EWz6Rqohy2vuKb5voGwWEK+++mrk+Le//W1cylK6KADLGY2506rnOVNGfRBX67H62vG1vZxR37Pzv0/8UTU5OTZ842L5nWtr9PPcsceo+Rkb8VkzVEXynK06o9beaKuLFjO72D8TnD3pWKBxNoyxH/7wh9LB0r4oWJK48HUzpbZxsQx/WsfOYQfL8id4QWHBjgdVweClXHX+k89o7uQjDpukJC4WpY/u5eE0cSZnNEcoXZ+wkLdeb7OZQhkiZ6NLRn3nO3ErTiUuQUWZVFG2PFUKqpuatViqcikom9///vdxB0v1ogAAAKbuqzhSchxXXFJZvSU/Pz/mnHyBJc7kTLZYVLOxI7R+trOrw1jfFV4dymf11KYKi3dbvPXxMxMjS0ZpX5uMW3GqMbzglEM79eJLyZanSo2h3UG1Jmibxa5sWltb9+/fT0QHDhyYNw/KbbkoAACAKeGIAowpRkeZP2Fjk8QlEhIWiwot6kTk7PJYmwyR1aE0dQ26jhR7hiSuICUjccUpLXVIEwDTL9UdKp7WeBJt02T1tGL3tEzJWoB1+u1vfxsIBL7yla8QUVZW1u9///vHH398SV4ULDS2b99++PBhtMMier/QCMsExoIqpYJysygnZ8rM0mJRLk0oGCUkDVrbnERdnoYmDdlvvUIJwT0GxtrJaeK42rmIYtaYOxv0bd0NeBIWq7J55ZVXDhw4wHEcEb344osHDhz4yle+wkXmnS6hi4IFSFFRERphsTA4OIhGWCaoNvGfFm+gUo1KlZuB7JAvFiWpAU1dg6fNRJ6GJk1ovShzu0FaiKnZQNTq9vqINDFFUiB5aMIWIphsQrvZ0M581frGXoEMaYPDtG67tPDB1JeLaptm4mrdOisehilZcKNRct8JET3xxBOSB2XpXRQAAECG5G28s+zvfrDl8SdVKtWUmZu1ocibRq82EsWiqWvwdFCzWUNE7T6rp1YaStI62g1E1BlKiCmSXF8YO2o5zrNvX6hAJGQ4dE3e3tCZNOZdL20hwpmcRO2OUBWTXk6eU4ah3WHEk5AJ3EILKNm5c2dzc7M0EsRxHGPst7/9bUtLy4cffjh3HpTbclGwADl8+DB8NouIwcHBvXv3zus3JschCG9OaWlpkeIdAZjxc7KwfDZxvhOJufag3JaLAgAAWLo4TVwcegQAzxsLS9nIg13kSIEvc/RT6bZcFAAAwNIlsmV9BCzLtCyVzbvvviuKYpzvROLxxx/nOO7dd99dGhcFS5jVm3U6nW7zarTETPB6vR6PJxgMoikAADNmJmPGo6OjJ0+eHLw+rOA4JTYLnyZikIIsuLqwcOfOHXl5eWiQBUVinM3qzbqqdeEXI2fdp/unVDZV6+jKx+4+bD42fT766KOenp6CgoJt27Zt2rRpyvyIs1l6IM4G3PpzMu1Z3ydOnLh85TN/jvrmyg1+Za7IKYgQY5s5TMmC2eKYOD709jt/KF23bteunWiUhcy1Prd7EGplXhkeHv7Tn/7k9Xp37NiRciNSAACYFWXz9pF3Rif8g/kVfsUKtN3MfvKJnFLMyh/Pys/OGaeBT9955w979nwZ7bJokHwyIyMjarWaiEbOnjrdPx7n2onLLDFy9tTp/lyp9NlTp/vHVaVbayrUNHLWfSEvLtt4kqLjy62lBwYGnE7nxo0bt2/fHr+aPgAApGYag0nvv//+6PjkwErImtnBr1ANrKy4MT5x4sQJtMZi43Of2/3xFSJ1RdlqotWbq9YRXfnYLSVKqEq3Vq0bOXvKLaWqK/hS1bW+yOHqsgo1jZw95aPEbKrSrZIAcrvdbrd7GcoaCcbYuXPnuru7h4eH8cwBADIkU5/N6Ojolc8GBvMrgpwSrTZbBLmsa3nl3JVzo6OjiLlZTIyOjxNFVkJdXbSOiK4MxoxVqVYXq4mookZXEUpR5+USjV/rO3U2r6aiporoysen+6l0a5Jso0RE6ooaXcUyddhIcBwHnw0AYK6UzcmTJ/056jhvzc/+0T9lwaL1Ofc9ca6gqGRFLnruJEwqVP7s/JMnTz7wwANojaVHMl2Sm6eeMts193hoOEpdUaPLW44hPiUlJYizAQDMobIZvD58c+WGuMTKL65SKCi0Eow0XYAjYqG/QcYYo/xVyjMn39uy476Sso1o7uS//3NWDV6/gHZYvIyNjhCp81Qqoqg6GR8fJVKrK8pW98eoktWbpWjkwSJdVdXW0VMXkmeja31udx+FgnGWF5nPjQIAgJkrGwVHfmX8bh0Nz699vDqLiIJMmsxMYpCJQQowCogUCLLJAB37ZPQXPzk/rq1BW6diQqEqxPSyhUo0knddlS7vrDuZBB3v950trqmQjSiFpMmp0a01FVW6UCTwyFnv58XVFWq68nHfNaKxsyPrKipqNpx1nzobm+2Uj/ionhk5e2rZOGxWrFixY8eOu+++W6HAehLLDsbY8ePHU52auHj+88NvcllZRXUNuaVlaC4wC8pGqeDEhAgbjrGR0cB/fzbqF5lSqShcmd1/bdwfYGsKc/sHxyb8TFNWIPoDt1rHEy89/8IbtPfQwX/YHXO8gBkfvjp0sS/pqcKyzaqCNfKUIKdUKiBtFiiS60RO5LXs1Hj/aXd/MskTn9wffS0/mVA6qbmlT1VVFR65pcqBAwcifxOFy+9///uWlhYikvbvi//5d/nSwJs/Ez/vD46Of9r7yR3/84f5xWvRpOBWlY2kZOJeBxkTGY37gxOTYlaWUpWTNTYRnAiwfH/w5kRwcsI/Mjbmn5xMp1cibHnx5dcal8yI+oqVhZ/1/qd/dCQuPTs3v5jfNmXDAgDAMuGdd975wQ9+MD4+/tJLL33ta1/74Q9/mJhn6P0/FpSuHQ5MKLgbzPvJ+d+9teXZv0XTgVTckss3KIpikPyB4ESATfoDkyKb8LOJycBEgE1MBif9k+MTATGQNsp4y4svH+s9eKz34BKSNUTEKbPu2KpPTL/jnvuVWdl47AAA4J133tm5c+f3vve9pqamnp6er3/964n790nkFK+dGPycrg9S/8XxoHhdIcq34NDHbDxpcs5BVfWR7SwFm36mW1vGFLwFO+kuIWsE/VSNEpc5Wh3BptfbvqNfxFt63pKyEcWgFFgjBikQDMXWBETyixSIpATEaVp995cPVT4f+vf00YvTy+z5ceXzD1X+8gQR0cBbTz//UOXzP36XiOhiZ9tDlc/v64weS/+ksydeCh2feOn5h17yUMhOTJ5psqZiS15RzNpteavXrtlUja8zAAA0TYaaRkJ9z84bowHl5KR/+MbF8jtX1sT+btRZfdGNJ9sNc1Bh1yLZztLls+p0Vp/UCJFm8Vk9tUnETWxmo9beKJcuZleorC5sZxFt6XlrPptAQAySyEgMkhhkfsYCIU0TOaBgYDpxNhc72x567njIkXOkYcsp+zdTi5tkmT3ZNUR06cJ5Irpy7hQR0dmzA0QD7zv7iDY/9CBd7Gz75it9ew8dPNb78r4aOvxc21vnQwbP/kvbC29Ikui1w7R535GDx3oP/uLFzTP023Bl2x6UJ5Rte5A4DDwBAJYpjLHf/e5327dv//73v9/c3JyJppHIKigs2PGgKhi8lKvOf/IZzZ18+hhzwaaPczTooz2708SZnNEcofREr4xeb7OZwi6N8Flbo8XttvAcp/9OxKkROhc1OR3nRnypBCvyaszsEqQxu3xWT2v6ItVNzVpLm3NpPGm3OBoV8IvkF8kviv5AMBCgSZECYnAyEAyIwYDI/CIT0yubM6+89FDl8w9VSvIioj9KiIg2bn2ohujUh++fT1o0aeZPqXozUd+xPw7Quz2H6f69T9EZ5+mLksqp2X7vRs+vX+kjuv++3URUsoEnor5zEfuGbx3rPXjs5ZJzpyhkhKissWmm0crqteWrNoRE7qpyXr3uC/hqAwAsSbipaGlp+eEPf/jEE0+cOnXq1KlTTzzxhEKhSMyWsq/iSMlxXHFJZfWW+JUb3RY+duBFE3I4MOYI9dbNxo4uqdd2dnUY67t4i9YRdmekGr9yW7z18U4gc2fIh6F9bbI55BFpkJwdjSGTzKH1+jJut7hSJt4bZ1ZejZldgohIU6l1T1XE0O6gWtOS0DZZt1I44Bf9QRqbDExOTAQU3Nj4+OTEhD/gHxtTTvonRH/ALzIx/WhU2sDhkg080am+8+czqUwos7+iYQv1nRGuXKRLVLP9Ps3mw2/0XzhPZ4mIXxueKnj8hcro5MKzZ+k+IiKqqJBqon36xc2HX+k788pLD71CRJv3HWl6coaL8ZRte3Do0lkidsc9u/HdtygYHBxEIwAwM5dMmrPyuVFxUcNyQSPNkEqinIgCjClGR5k/YVaKzuqLGykRbHre4g6drRbIYKg31nY52w0GZ5fH2tRu91g7DUREmroGnaXLmXQIS2dtSj2y5aGODq4j/MroI9JSRy1HDtZuaG/PvNHiSrUmmJVXY2aXyBxDk7W10SZ0LnNlExADAXGFUmTKIHEU8E9mKURSsoB/MksR5LIVYpCYKM7Y/sAFHxFt3rix77P+TDNv2r2WiM74en7t6yPesOvB7Vtesf/b9zefIdr7iJbIQ0RE97/a+41dssInXorVI41NxxqJyPPjytcOU9+xP9KTjTO7hRX5q0r4LxLHqdSr8cW38AkE2edqXsQWIosBJQsUjwhoh8XInj179uzZI+mbl19+OVHfJJNNQZVSQblZlJMzpX09b2/wMZeGSLDpGyOddpuTqMvT0KQh+63fQ4KcMjDWTk4Tx9WS0ZFxuE97bKlEs62pM08jokjo9eiqm6Z27Zg7G/Rt3Q2L/QG7pdGogN+fna1YX5y/vrigeLU6N1e1tli9do06b2Xu2uKCtcWFnDKHySLYp/a7PPl390eGgej86WOhIaRpZdbe9xTRqeOHT9HeR7S0cW0F0ZlTkREo7dMvbiY6/m+dA5KVi51tCQHCnh+HgnukzFRRcSuttF77V+u33IvvssXyozNbHEM7LAqyxbG0PgKwCPTNBx988JOf/KStre2ee+55880303h9VJv4C8UbqOY+lSo3A9nRUKchIhK67e5wp13X4OkydXka6jREWncopETotruN9QYiCg/WyIqkwO31ySxEMNkEIkM781l1nt5kklvrtndHph91293aSk1CqUSz07pECpwm3qJtzigAWGNuJovFvZx9Np8Pjjncn4rSFCnGWJAYY0EmHXOMGBGNjU5Mx+Tubxw7RA89Jw0DEdU0/OLXD194yZ555jKiskfupzeOE23etJGItPc9RYffIKop3RD2x/yC2r75SrgU0d5DCZZP2b9ZGbrolhdfvrVVAbNyVPgKWyysLiwUx4fGs7D/4iJgZWCoaFUB2mEJ6Jsvf/nL0kp9r776atKV+ogob+OdZX/3g/WiqFJN/Y3arLXwnIWIdEajjmTSxuJtZhoiavdZ9bzkIzI6mIGIOq0eKUFeJHnPb+RquQ7dvn1UG/Yy6aw+l5lC1ySd1edKJiLafQ36UBYpk4GI4ktFKxY2K2eqS0hjcDzndbB2codzk87qY4m6JiazzPfU7jB2tC7uh4pjmf3qOXz48MX8u+ISBy6eP3PyvYGLU8TBlJRtxL5R6Sm78cnevXvRDred0dHRt9/5w2D+Jr8CenSBO2zGi26e++tHH8mkn5vNb0wu0+/M5catt4y0u8KxY8f279+P9gTpaWlpSfOc3JLPpqCoZMuO+6bcE0qVm1dQhA17wSIgLy+vdN1a+uzTgfyKIJeFBlmYKFigaOzTstL18yxrwFxro927dx87dmxJ3I3TxNV2xKQkxjkv/EssVm7pu3tFbh48MWCJsWvXruaXXvrSLrqWVz4Jz83CI1scLxr7VJ2n2rFjB1oDLFQM7Yy1L/pLLEtlA8CS5JXW1hMnPuAun5vMzh/LWTWhUAU5Jbb3uq0wBRNzxLGV/qFs/407StdD1gAAoGwAmAY7d+4YHR09efLk4PULhRxhM/bbjhhkQUZFqwp27XoEg1AAACgbAKZNXl7eAw88gHYAAIAlq2zKbnyC9gIAAADAUlA2H374IWbizR0tLS2Y9Q0AAADcOgo0AQAAAACgbAAAAAAAoGwAAAAAAOaMW50bdfNcEwVHVF/4iUKZm36nVgAAAGAGMMYmLp7//PCbXFZWUV1DbmkZ2gTMlbK52ftgjtLPsmjiv/iJL/xJvWpTVhamkQMAAJhNJi5fGnjzZ+Ln/cHR8U97P7njf/4wv3gtmgWkYuajUeOXO1Qld1OuisvRqrLzb/SZh4eHp7sjml5vE8J/AQAAgESG3v9jQela5aqirJUFSsF3/ndvoU3AnCgbTpHLgteVSlLePEGBwNjN4aGhoWAwGFUtnByT8/bdpF5WB/1UdYrLHBVdgk2vt30n9q44eQYAAABzQE7x2onBz+n6IPVfHA+K1xXiPPc10Z/fgm1mP8Vts953TKcmy60TnLmyWbH2mZtXzgcnbrIbIyPjI6evNsbH2eisPhah3XD7btLls+p0Vp9Uh0itfFZPbZL3NTazUWtvlL9rZleorC5sBzurAgDAnKK+Z+eN0YByctI/fONi+Z0ra/Tz3Ne4bvmL/vb2HcutE7y1uVH53+KUK8ZuDHqu7Fp/R1VhYaFCoZhCY6aX1QkZQppUsOlDKYJNb3LG5AzpRb3eZjOFCiacTIbG7PJZPa3p1WZ1U7PW0ubENwsAANwusgoKC3Y8qAoGL+Wq8598RnMnn76viXYBkQ4i2uk4TZzJmaqvkflC5H1K5Kyt0eJ2W3iO03/nO3HdTEb9TlJXUGIHl2guwXq0JjZhBpde2p3gLSmbnJwc4kikrKGcv924caNarY5x27gtfKzTy8RbtI6wUkymbRIzaN1eH5HQbdcaqctJRD4vVfNEJt7bHFKdDSFB6bZ460OCvTFkhjm0Xl+697VSsp8OQ7uDak3QNgAAcBv7Ko6UHMcVl1RWb8nPz485l9DXaEKOBcYcoV652djRJX2NO7s6jPVdU3VGFNunRD0WnSFfhfa1ybg+KNN+R0aqDo4S+rgvJ3R5kZq4zJoZXHppd4K3pGwkHaNgY6tX5avV6viJUQkeQo/O2mQgItLUNejCj5mcxAz1Rk+vQD6vtr6p2tPlJKHXo63UEHmoo1Z6jHmLW3pjwmWJSEsdko/N0D4LnklD05SqFgAAwBzCEQUYU4yOMv9k/LnE0aiIE6O2gzy9ApGhPiRtnF0ea5Nhys6IYvuURBL7oBn0O6k6uET7RxO7PLlCmtUubwl0grOwUh/jFGzO9gznq8nrc3Z5qnlNXYOny+nzausNyR9lGe2MMVbfNWU0mdDr0YUEclpVa+5ssLd147sFAABuD4wFVUoF5a6gnJwpM+t5e4MvHA4S7Zy7nOTs8jTUzUpYSEIflGm/k0kHl2BfNytd3rLpBG9J2ajWfWvsev91riY3N1epVE6ZX+sOjdYJ3Xa3sd6QQQZNXQO1tnoa6jSkqWugrq6Qqy6SMykmm0BkaGc+q87Tm1JnOk28RducUeyTxtxMFosb3y4AAHA7UG3iLxRvoJr7VKrcDGRHSL4I3fbw97amrsHTZQoJmySdUdgRIiuSAslDk9AHZdbvxPYsKTq4xD4ueZcXrvMMLr20O8Fb9bWIZScDqqvrc3NzMtDR7T6rnpcicYwOZsgog6aS3NTQqZEOO+zVPk1cTiKd1ecyxxiy8JwlfEZDes7iJuI5r4O1kzt8jnRWH0t8S/W8LHMUQ7vD2NGKrxcAALgN5G28s+zvfrBeFFUq1ZSZm7Wh73md0aiTyQiPxdvMNEn7mk6rR0qQF0newxu5Wq5Dt28f1cb2QbH9TmbSJnkHl6SP81kbY7s8TaQmVp92qkvH9GvLoBPkMlxbr6WlZf/+/fh0zRFo3oX1qeC46a45CZYq//RP/yR/+cILL7z66quRl9///vfRRLP7qcGXIbj15wQ7YgIAQEquxRKXgvYBKXCabtuCdrfx0gsFbPMEAAApkXtofvvb38alAJACQzuLGctZHpdeKMBnAwAAU8MY++EPfygdoDUAgLIBAIDFze9///u4AwAAlA0AACxWWltbpYjFAwcOwG0DAJQNAAAsYn77298GAoGvfOUrRJSVlQW3DQBQNgAAsIh55ZVXDhw4IO0n8+KLL8JtAwCUDQAALFbkDhsieuKJJ+C2AQDKBgAAFityh40E3DYAQNkAAMCiJM5hIwG3DQBQNgAAsChJdNhIwG0znzDGxi+cu3Cw7eKhn471X0SDACgbAACYCe+++64oinEOG4nHH3+c47h3330XrTQPTFy+NPDmzwKffjJx5sNPf/ryjc8/Q5uANGB3BQDAnDM6Onry5MnB68MKjlMuqt9TLS0t3d3dkZe///3vDx8+HDk1MjISebnwEYMUZMHVhYU7d+7Iy8tbRO/C0Pt/LChdOxyYUHA3mPeT8797a8uzf4uPFYCyAQDcHk6cOHH5ymf+HPXNlRv8ylyRUxBxaJZ5hylZMFscE8eH3n7nD6Xr1u3atXOxVD2neO3E6V66PkiXB8aD4nWFGAwGFYqQRtZznDua1+hg7YbZroBeb+t0mTVEJNj0jRQ6ng42PWdxx6TorL7pm5ExnZpE638LtzDFJULvgtHB2ltl70jS9yMuM0WaQrDpG6mGLK/dWlthNAoAMIe8feSd/oHBq/kVV1Vl41n5IqeErLlNcCKnHM/Kv6oqG8zf1D/w+Tvv/GGxVF19z84bowHl5KR/+MbF8jtX1ujj+z0WYfZlDRG5blkHmF2MMcZ8Vl24trMtLW4zrtCttRvk74jP6qnlTM70mY1ae6N8N/JbbysoGwDAXPH++++Pjk8OrKzwK1agNRYOfoVqYGXFjfGJEydOLIoKZxUUFux4UBUMXspV5z/5jOZOPuKwSeXO4ELopS5TH+1enSbO5IzmCKXr9eG+VbBJx3q9zWYKZYictTVa3G4Lz3H673xHH3uJqEm9vJuewpUihEpK1RBs+nA948wlWI/WxCbM4NJJKpxgRd4CM7sEacwun9XTmr5IdVOz1tLmnMUHZqErG+Fwi8RhAV9HACwmRkdHr3w2MLjyC0FOidZYaAS5rGt55ZevfDY6OrooKqzgSMlxXHFJZfWW/Pz8mHNuC89FMDmJNKFf/Yw5Ql1ms7GjS+o6nV0dxvou3qJ1hH0KphR9qtvirY93Apk7Q44E7WuTzSG3RIPkcWgMmWQOrdeX2U1p3V4fkdBt1xqpy0lEPi9V80REZOK9cvtfjn0pyGriMmtmcGlKqLAp4RLyFpjZJYiINJXSbabD0O6glO/DTKTwAtc1v6Rv7N+vIRIOtxwW9u/V4AsJgEXCyZMn/TnqOG/Nz/7RP2XBovU59z1xrqCoZEVuHppx7phUqPzZ+SdPnnzggQcWfm05ogBjitFR5p+MP5cYhSHY9Hw4rEVXLZDBUG+s7XK2GwzOLo+1qd3usXYaiIg0dQ06S5cz6RCWztqUemTLQx0dXEf4ldFHpKWOWo4crN3Q3p7hTdUbPb0CkVdb31Td2uYkvtejrdQks0/UcTT2cvL7ncGlE0u1JtyRvAVmdonMMTRZWxttQudyUDaavftTaZnBEz93D6z98MMPicr/+ju7B/75lx8Slf/1/md3CYdbfvkhERFt/8b+vZrBEz/vOkOffrr2G/v3UvhU+V9/59ldRfhqA2DuGLw+fHPlhrjEyi+uUigotDwMC3dZLPQ3yBhjlL9Keebke1t23FdSthHNOKeM5qwavH5hUVSVsaBKqaDcLMrJmTKznrc3+JhLE4pIDfecbU6iLk9Dk4bst16hBDllYKydnCaOq804ipmvpi6f0+upbtLUNXjanD7S1puT2tfrq9PE/LZP/9KJpRLvqPWWL0FEJPR6dNVNU3f35s4GfVt3wzJQNiHHTcsvP6Tyv/7O3rgTH9Ld+/fvJeFwyz//n2+EjkgYCLt5Qn4eHdGna3fvf1ZDwuGW8KnBEz8/LDwLFxAAc4eCI79SFZfY8Pzax6uziCjIpEnIJAaZGKQAo4BIgSCbDNCxT0Z/8ZPz49oatOFcM6FQFS6SeG7VJv7T4g1UqlGpcjOQHQ110lSbbrubpM5SU9fgaTORp6FJQ6R1W9qc5nYDCd12t7HZQNTq9kqOEFmRFLi9PpmFCCab0G42tDNftb6xVyBDBv2Lpq6BGls9DZ0a0tQ1UFsXRSRAnP3Ey0Vqosng0lq3vVswmyNtom1OLJX8Erdwd0RE5DTxFq2DZZJdY24mrtatsy4LZaPZu3//Xho88fOfn6iPcbRsv1tDRFRUUr59TbjZBq9+tv3ukATS3L393auDRFReUiSdog8/bPkwlLP8rwdJA7cNAHOFUsGJCRE2HGMjo4H//mzULzKlUlG4Mrv/2rg/wNYU5vYPjk34maasQPQH0HozZnz46tDFvqSnCss2qwrWyFOCnFKpWBzSJm/jnWV/94P1oqhSqabM3Ky18JyFiHRGo04mIzwWbzPTEFG7z6rnJc+h0cEMRNRp9UgJ8iLJu18jV8t16Pbto9rw0tQ6q89lptA1SWf1uTLs+DWV5KaGTo102GGv9oULympIpLP6fNZGPuZymkhNrD7tVJdu9zXoQ1mkTAYiiq9w3BVd5hgTU11CGv7jOa+DtZM7nJt0Vh9L9DXFZJa5vdodxo7WJe+zEQ7//KpuWsNGRWvWfvh/hL0aDREJ/+fDtXfvpavRU+V/XY9BKADmkfheM8iYyGjcH5yYFLOylKqcrLGJ4ESA5fuDNyeCkxP+kbEx/+RkUlueE+++9sJzkZebt9Q0vfbr+bmNo2912l975f69T33jH14mol/++KXjh9/Y9+oh7a7dC63FV6ws/Kz3P/2jI3Hp2bn5xfy2Kd+ghUx84HAYV1wfTGRoZ6w9iShxMfmxOf6kOaVZ+XHU+D//c4x6SHbNJHVwxdXUkHiYtELx9ZPXxDzVpRNvL7HCiVeU3fWUd+eS7TRimGrXkZjM8rdP3gjxbbVklI1m7+7/09LSInlovrF/b1EmRb4hL6KhwavJrIWCcITDP7+699k1h39+de+zuyQltffZXeiOAJgjgqIoBrP8geBEgAVZYFLMmfCzCX9gIsAmJoN+/+T4xAoxkC7KeD4FTYSHn2x8+MnGxaEllVl3bNWfP/H/xqXfcc/9yqxsPIHzhdPE1XbEpNzqynwL6dK38e6WgLIJD0Ulc87senZv/JFm7/7EIkW7nn02pTXN3mc1RCT9jbwEAMwRohiUAmvEIHFcKLYmIJJfpECQAkEKiBQIiJkbHLh4/qVvPhJ52bDvxYefbGzb93TfmVOST0XKENFDzz9UGcn88i+OlJRtjMsQKfvaC8/dv/epe+575LUXnou8/MY/vHz0rc7jh98gIsmBdPBYr7wOcX6duMT5YU3FlgHff44OXomk5K1eu2ZTNR6/ecSQkQtnsV76Nt5dRmClPgDA/BEMBMQgiYzEIIlB5mcsENI0kQMKBqYXZ3P/3qcOHus9eKyXiOyvvTJw8fz2hwxE9NmFs0R0+v0/EtH2hwwDF88//1Dl5i01UubNW2pe+uYjAxfPp7F86axPPv4V8d/cv/cpItr36qGIrJHq0LDvxeOH3zj6Vqekfhr2vXjwWO/Lvzgy734brmzbg/KEsm0PEoeln8FyAcoGADCPykYM+EXyi+QXRX8gGAjQpEgBMTgZCAbEYEBkfpGJaZVN35lTzz9U+fxDlUff6iSikrKNEXeIJDiuXDi/9d4HiejDY04i6j8nENHWex+MSBwps3QgJaYhoplS8favDxHRPfc9QkRrN1RIV5QuKlVAXsN5Q722fNWGkAd6VTmvXvcFPHtg+YAdMQEA80fAL/qDNDYZmJyYCCi4sfHxyYkJf8A/Nqac9E+I/oBfZGLa0ajEOBv5uI9ESdnGzVtq+s6cIqLjh9/YvKUmcWmciAqRZFBS7qjgM7wvuWvn0lnft/6vfzp++A1JhFF4jGyem7ps24NDl84SsTvu2b2InpDt27cvou3TwW18TqBsAAALQ9kExEBAXKEUmTJIHAX8k1kKkZQs4J/MUgS5bIUYJCZOI85GkjWSdJBLnO0PGfrOnJL8OhE/jRxprKp00+yE1iXOk5I8PVKVPjzmnH9lsyJ/VQn/ReI4lXr14npIioowgxVMweDgYJqzGI0CAMyjsvH7s7MV64vz1xcXFK9W5+aq1har165R563MXVtcsLa4kFPmsGBwumYlB8yls9HdaSRPjP21VyLHkraQRogiB1vvfVBy50gOHvlBGiQ9JGmjR59+joic//Yv0qmBi+d/+eOXfvnjl6QIHuls5r6f2WW99q/Wb7kXTx1YbsBnAwCYPz4fHHO4PxWlKVKMsSAxxoJMOuYYMSIaG53I3OCjTz93/PAb0mDQ5i3RZYsjA1LyoaiDx3qlGB3ppTQ3ioga9r1of+0VKT0yjJWGh59s/PCY0/7aK/bXXpFihF/65iMRs1K4T2S21OYtNfMfZxP6fs9R4ZEDyxCOTbWijkRLS8v+/fvRXnMEmndhfSq4TD8XIA2HDx++mH9XXOLAxfNnTr6XfkaSpEuwb9T8UHbjk7179y6cT83hw4cxGgWmZHBwMM1zC58NAGD+KCgq2bLjvin3hFLl5hUUlaC5AAAzAMoGADB/rMjNgycGzCmrN+uq1tGVj91919AYiwav1xsMBqurqxWKWQj/hbIBAACw0JVKiJGz7tP9aJOlx+TkZE9Pj8/n27Zt26ZNm+ZJ2WCNgTkl/dR8AABYtlzrc7sH4YdZFgwPD//pT3/yer07duwoKZn5ePQ0fDaI6po70k/NBwAAEELy4YyMjKjVaiIaOXvqdP94nGsnLrPEyNlTp/tzpdJnT53uH1eVbq2pUNPIWfeFvLhs40mKjqPt54eBgQGn07lx48bt27en2uB91pQNAABMi7Ibn6ARwNzwuc99OnezrmpdRdnq/j7aXLWOJKdOVJGoSrdWrQuJktWbdVUVfOm1033uj0k6vJBXoaaRs6d8tLUmPpuP+IgAQlvPP4yxc+fOXb582WAwFBQUQNkAABYEH374IdYyWPi0tLTMyqzv+WZ0fJwoN/xqddE6IroyGDNWpVpdrCaiihpdRShFnZdLNH6t79TZvJqKmiqiKx+f7qfSrUmyjRIRqStqdBXQN7cBjuPgswEAAACSkEyX5Oapp8x2zT0ecv6oK2p0eQjxmT9KSkpuMc4GuysAAABY3IyNjhBRnipmzeXx8VEiUleUxe2btXqzFI388RVaV7W1lFJko2t9brfbfersCNp3vigoKHjggQdqa2tvRdbQfPpsltUaA7M7NR8AAJYt0biZdVW6vLPuC0nyjPf7zhbXVMhGlELS5NTo1pqKKl0oEnjkrPfz4uoKNV35uO8a0djZkXUVFTUbzrpPnY3NdspHfE1F2LEzcvYUHDZzzIoVK3bs2HH33Xff5vVssMZAGmZ3aj4AS4mb55ooOKL6wk8UylyO49AgID3X+tzuvpiUyGvZqfH+0+7+ZJInPrk/+lp+MqF0UnNgrqiqqppFa4pbeto+vkJEdOVjyJqkSFPzHQ7HwMAAWgMAIrrZ+2CO6M5Wnp74L/761b5AIIA2AQDMLrM3GoU1BlJw61PzAVgajF/uUJXcHRzzcZxGlf351T4z4/9t9erV6T03giA0Nja6XC40IAAgE2Y9CuRzn+TKkcKxVofXGAj7d4iiawy4pVR1BV+qutYXOVxdFlljICGbqnSrJIDcbrfb7V4sM/Gkqfnd3d3Dw8N45sCyhVPksuB1pZKUN09QIDB2c3hoaCgYDEYzhJnalCwnx3E2my0ig/R6vV6v52KJZAAAQNlMk9FxudZIs8aAuqJGp9OF5tTl5RLRtb5TZ0fUFTVV66Q1BlJko3Di1lLVovlC57hNmzbV1dXNYMUhAJYMK9Y+c/PK+eDETXZjZGR85PTVxjgR4/P5dDodY2xKU/KcOp3ObrcLghA563K5GGORPIwxs9mM9gdgmXDb1rNZPmsM3PrUfACWDvnf4pS/Grsx6Pn8vvV3VBUWFqaaCiEIAs/z0rFOp0tvtbm5ua2trb29HQ0MAJhbZTM2OkKkzlOpiKLqZHx8lEitrihb3R+jSsJrDAwW6aqqto6eupA8WygaPhSMs6ApKCjA3CgA5OTk5FCQRMoayvnb/7Fxo1qtTjX2xPO8w+EwGAxSnE16swaDoaury+l0RsQQWLxgHz1w25QN1hhIw+xOzQdgySDpGAUbW70qX61WZ2Wl/ArS6XQGgyFzy01NTY2NjZ2dnWjkRU0gyD5X8yKnRFOAVChZoHhEmBNlgzUG0jC7U/MBWGIwTsFm22Gs0WgaGhq6u7vRvIv72WAsWxwTszCNFKQkWxxLH4wHjwIAYP5QrfvW2PX+61xNbm6uUpnud7nb7ZaCgjMXK2az2WKxoJEXNasLC1cGhtAOIA0rA0NFqwqgbAAACwWx7GSg9Ofr16/PycmJO8XzvNvtlkasHA4Hz/Mcx3m93kQj8pxyHA4HWnhRs3PnjqzJkewg9tYGyckWx7Mmb+zatStNHuz1DQCYVwoLCwsLC5Oeks/3NhgMaaZ/y0/JF/EzGAyR6ByNRoP1/RYdeXl5pevW0sCnAysrghx6KBCDggWKxj4tK12vUqVb9gU+GwAAAAuIXbt25atWlNw8mwPPDZCRLY6X3DyrzlPt2LEjfU4oYgAAAAuLPXu+/MEHJ7nL5yaz88dyVk0oVEFOSYT9U5chTMHEHHFspX8o23/jjtL1U8qa6SkbrDEAAABgfti5c8fo6OjJkycHr18o5EipgKxZpohBFmRUtKpg165H0g9CTVvZYI2BuWPKqfkAALAMycvLe+CBB9AOYLpkGmcjrTGA9poLppyaDwAAAIBZVjZYY2DumHJqPgAAAABmWdlgjYE5IpOp+QAAAACYZWUjrTFQNPqpggXQarPW+plNzQcAAADALCsbwhoDs03mU/MBAAAAkCHTW88GawzcMjOZmg8AAACAOVE2hDUGbpkZTM0HAAAAwFwpG8IaAwCAW+DK8PC/vvfet3S6NStXZmdno0EAALML9o0CAMwf/UND//7RR8899tihEyf+cunS5OQk2iSMYNNznMmZSVaO09uwuicAUDYAgNsua37T0/Ps7t3FSqV5z57Xvd6+/v5ZFDd6TsLkjB6HXyeqiKg2kL8QbPoY2SCzEysmnCb5BfTykzHG422mMijYGi1aB2s3xFwhlEV+Mb1NIObQWhqhbQCAsgEA3D4uDQ39R0/P3+zenUtERGqlsunRRw9+/LEwe+LG5bPqdFafpA50Vh9jjDHms3pqE8SNpq6B7N2SNBC67dRQp4kcG42RUzF2Gux8yIxg03O15GAhHNTlTlOtOJvJDBI52yxkbYqRNa1k1EWtGMOXc5k1RIYmK1nanHisAICyAQDcJl5/772n9PpcWUqRUvm1bdt+1dMzNBRa3zzGdaK3CSF3h8zBEf+a9HqbzcSlG8XRmF0+q6c1zsMhkzY+b4ywaWiq17pl0iZSolIbPuy2k9UX9a4Y2tt16YVNUpsyg+Ts6tCFK0Ek2PSt1T5XU3Vqq5q6Bp2nF14bAKBsAAC3iW/r9YeOHh0RxUjKmatXu44ffzg/f2ws5Z50jRat5KtwaL0+IhPvbY44PKThGLfFW8+YfBQniQyo1Lq9vhRpzq4ObaVM2NRpDPXGJNLG2dWhq+aJiMjuDpeI4LbwkfEi3uKOEzZJbcoMCr2eiLARbPpG6nSZ4y7QURs7gpXsngAAUDYAgPliTX7+V++660dHjgyKoiRrDh09+nBu7po1a9RqdapSWuqQhpIM7e0GIk+4g+d4i1vq2HXyMZzpYKg3dnQ5Sej1GOsNchFCJJchEcnSWu2LyI2wIokSGWNijPmsunhhI7OZ1KCMbrs7lIW3uN0WXm8jMrSHB76i8TV8NZw2AEDZAABuG1lZWZvWr3+mqqrlyJHjV678/NixPXl5GzZsKC8vLyhIuSNsO2OM1XdF4oDlAiK9n0aO0OtJ1CJkqDd6ep3ddm1U2IQ1RW0HhaWNdEWfVSfzkCQdrUp+5USbyQzKMbtkCkln9bnMspN8dUQ0+byJniMAAJQNAGD+yMnJ2VxaaqqqevuDD+qKisrLy8vLywsLC5VKZShHuLMXuu3SgI7JJhAZ2pnPqvP0CqR1zyBs1mniLdrmJN4RQ73WUmuRCxtjNCo4dvBIY3Y5KBKI3GQlSzT4l5wmkzu1sEluM9agpjKtWHKawqHL3ZGBsORqDQAAZQMAmGdxoykt/e699/I8Hy9riDqtHmmwqdGrDfkmQkM3vL2h06yhdl84B5dkSRe9NHwjyYVo4EtrtS+Fe8dQbyT5UJRsYCsxLsYgXVxvE0JByZGK1FK9LpWwSbD5mZDEICUP7QnDV4cuxlu0DulWZBoHABALxxhDKwAQ86ng8LmYBVpaWvbv3492yBDBpue9zZmOsDlNqcJ0btfbhE8NWDjAZwMAALcfjbkz2cI7KWRErcfaaYbHBoCkZKEJAABgQWgbFzNnlpUxF9oLgFTAZwMAAAAAKBsAAAAAACgbAAAAAAAoGwAAAAAAKBsAAAAAQNkAAAAAAEDZAAAAAABA2QAAAAAAQNkAAAAAAEDZAABuG1eGh191OC5fv+73+9EaAAAoGwDAIqZ/aOjfP/roucceO3TixF8uXZqcnLydtRFs+oQNwxcegk3PZbqfFLcI7gcAKBsAwNKRNb/p6Xl29+5ipdK8Z8/rXm9ff39E3Nj0XBy32kvLhEvYdlqBECN04lSPYNPHVEiftJpOUzTZ5CSieBsx9jMwSCTYGi1ah3wPcKcpkkV+Pb1NIObQWhqhbQCUDQAAzD2Xhob+o6fnb3bvziUiIrVS2fToowc//lgIixuzizHGmM+q01l9jDHGXLO3m7UrZFYmEBLR1DWQvVvSBUK3nRrqItcXuu1kNEbOElG4kszXYOdNTkmq1JKDhXBQV1oVNbVBSca0WcjaFCNrWsmoixoyhq/oMmuIDE1WsrQ58bgBKBsAAJhjXn/vvaf0+lxZSpFS+bVt237V0zM0NJSqVMjJIdj0IXeLYNOHe30h4uXR24SEl0S2RovbbeETfT+RnLzFnUra+LzxwqahqV7rlimRSKFKLRERddvJ6osqJ0N7OhWViUEiImdXhy5aD8Gmb632uZqq06oznacXXhsAZQMAAHPMt/X6Q0ePjohiJOXM1atdx48/nJ8/NjaWqpTW7fURCd12rVHygfi8VM0TEZGJ9zZHnByNti/HvhSIzJ0h90+c78fEW7SOsH8oQVS4vT5JUWgrY4VNncZQb0yiRJxdHbpqnsjulpWI4LbwkfGiqJDKyCARCb2eiLARbPpG6kzwY3XUxo5gRW4BACgbAACYQ9bk53/1rrt+dOTIoChKsubQ0aMP5+auWbNGrVanKlVv9PQK5PNq65uqPV1OEno9Yf3gCXfqHG9xu71HY1+m6ds9OvnwTiyGemOHdBljvSFO2BDJlUhEsrRW+yS5EZYjMUTGmORCKkODsXTb3aEsvMXttvB6G5GhPTz2FY2v4avhtAFQNgAAMOdkZWVtWr/+maqqliNHjl+58vNjx/bk5W3YsKG8vLygoCBVKb6avD5nl6ea19Q1eLqcPq82ojjkooG162JfGmZYTUO90dPr7LZrY4RNWFPUdlBYiUiX81l1YRWVdGQpKRkajCMUhxQJRXKZY9op4n3yeZM6jwCAsgEAgFkmJydnc2mpqarq7Q8+qCsqKi8vLy8vLywsVCqVqYpo6hqotdXTUKchTV0DdXVRxDGidceEysa9DJFMJUQkiNBtdyeRNlpLrSVO2BijgcGx40cas8tBtZzJSdRkJUs08pecplTzsDI1SNLQUhq9FLmG0B0ZCxN6PUmdRwBA2QAAwJyIG01p6XfvvZfn+SlljdS3kzsUy6uppA5PdSSctt1n9dRGpzw3xb4UiEhjbjZ21HKc3ibopREczuQkandoJYdJo1erS+q1obihKNnoVWJojEGqiL67ziWvQi3VG1IJm8wM2oRkZynGUxO6Hm/ROiQ3lUzjALBc4RhjaAUAYj4VHD4Xs0BLS8v+/fvRDreIYNPz3uZMh9ecplRhOnP9NuFTAxYO8NkAAMDCRWPutHpqM12DuNZj7TTDYwOWOVloAgAAWNDaxsXMmWVlzIX2AgA+GwAAAABA2QAAAAAAQNkAAAAAAEDZAAAAAABA2QAAAAAAygYAAAAAAMoGAAAAAADKBgAAAAAAygYAAAAAAMoGAHDbuDI8/KrDcfn6db/fj9YAAEDZAAAWOoyxd999N+mp/qGhf//oo+cee+zQiRN/uXRpcnLy9lRRsOml/cAXMYJNz2W6nxS36O8WACgbAMBcceDAgQMHDqTSNL/73e++9KUv/f3f/31SWfObnp5nd+8uVirNe/a87vX29ffHixuniYuQWbd9y5JFsOllXX+ihZiUuNOxZYn00drLUhNuKt5GjP0MDBIJtkaL1iHfA9xpimSRX09vE4g5tJZGaBsAZQMAANPhnXfe2bVrV3Nz8wsvvPDnP/857uyloaH/6On5m927c4mISK1UNj366MGPPxZk4kaw6blacrAQDupyzkO9hW47GY1k707V82vqGiJnhW47NdRpUpfVWX1S7X0Ndt7knO5NZWBQkjFtFrI2xciaVjLqooaM4Su6zBoiQ5OVLG0ZtKZctqaRsABA2QAAlrim2blz5/e+972mpqaenp6vf/3rHMfF5Xn9vfee0utzZSlFSuXXtm37VU/P0NCQlNJtJ6sv6oUwtLcbiPR6m80U9nUINr3MFRF9FXZW2BotbreFjz8d9nZEUniLW64lGprqtW5JTcRYSJQ2Pm+8sJGVjdVDldrUN5VO2ExlkIjI2dWhi9ZDsOlbq32upurUhjV1DTpPL7w2AMoGAABuWdNIfFuvP3T06IgoRlLOXL3adfz4w/n5Y2NjUordra3UJJR0W7z1jLF2A5GJ9zZHHBiNNjK7wp4QreSRMHdadTqrjzGXWROXWSAy8Rat5MrwWXVyLVGnMdQbJTUhtyAXFW6vT1IUsirGl43B2dWhq+ZT3xQfGS+KyqyMDBKR0OuJCBvBpm+kTnltiYioozZ2BCtyCwBA2QAAQDxSPM327du///3vNzc3p9c0Emvy8796110/OnJkUBQlWXPo6NGHc3PXrFmjVqtDmcI9dwy66KiLJ9xhc7zF7fb6Ij6Y2g5K8EjEZyby6OQDOHItQZRcTUQ8LfXGji4nCb0eY70hbdmIZGmt9klyI8VN+cLjU1GZlaHBWLrt7lAW3uJ2W3i9jcjQHlV84fgavhpOG7BMyEITAJBI+k4ayHniiSeSpseFaGRlZW1av/4ZxlqOHPnatm1dx4/vycvbsGFDeXl5QUGBlEfrtncL5iS9t1wQyHp3Padv8DGXJuS4SJ+ZiFoTsgjddrfbzXOWUIluwVyXStq09jq77dp6V5qyZk3oooJNz3t9RJpMbmqaBuMwu5iZYrw3spN8dST0xud1a+s1mT3tLS0tSY8BgM8GgMXqkABp2L9///79+6XjI0eO7NixY+vWrXa7PRgMyrMlNmxOTs7m0lJTVdXbH3xQV1RUXl5eXl5eWFioVCqlDE1WskSDZMlpip8cpXXHhsGGh2SEbnskbobCgy7xmUMiQ55f6La7jdHg3rCjJNmwjaFea6m1aGM8NsnKSmjMLgfVciZnBjc1XYMkDS2ldjBFryF0R8bChF5PUudR3AMvf3Plx5mArw4AZQMAWPTs2bPngw8++MlPftLW1nbPPfe8+eab6Xu4nJwcTWnpd++9l+f5OFkjdd8+q6c2HH9SS/VxY0ft8tN629Pa0EhNo1erC5toNnbUcpzeJsRlFojaHaECofxCt10+wUgaA6KohXivDcUNRSWUlZcwSNfXd9dNcVPTNWgTpho746tD1+MtWocUsCzTOAAsdTgIbQDAtJCGmRLnA7/zzjs/+MEPxsfHX3rppa997Ws//OEP9+/fj+aaIwSbnvc2s3QTrWQ4TanCdFpaWuRvk/zNTfVGA7DAQZwNAGB22LNnz5e//OXf//73LS0tr7766uOPP442mTs05k6rnudMjkzEDVfrsfraM/HYyHUMNA1YpMBnAwCYZRhjx48fP3bsGHw2C584nw0ASwDE2QAAZvsHE8ft3r0b7QAAgLIBAAAAAICyAQAAAACAsgEAAAAAlA0AAAAAAJQNAAAAAACUDQAAAAAAlA0AAAAAlh1YgxgAMH/8/9u7v5C27v+P4++TWButSVvROr/daG1zZGYpYw5byBls8L2Kli/CIHfDOwODkdx4M4RS5l0vllxG2EVvLQMZbXL3ZbvwML5jwmiWMs8prvSP7Sr2j36tWs3nd5FETbQm/f40U/N8XPnxvE9O8j4hvvycTxKl1PLDe7M3b2h1dc19oYb20/QEwO5izgZA9Sw/fvT0xner9/9Y/v3X+99+szD7Fz0BQLIBcFC9+PlHT/sp54nmumMep23d++F7egKAZAPgoKpvObU8NyvP52Tm4VJ27bljLZvNrm81jLi9PrDjRcNdYmg54dTGz4VxueKNu2PHDSP+1eb9NU3bXACAZAOgFrg/vLiwuOpcWXn9cuHhe+eOdRtVvgMTViwQiFm5L8gOxCyllFLKiqV7twk3xcWD/rGBzdElMpHfN1C4nYmIl1MMkGwA1JA6z3FPz2eubPZRg7vp8y+853SHo8yrkB03iqZESsdiGPF4OD+zsmVjZbyRCSuWHtl5F9/QsD96LcVJBEg2ALDpRUcTp6ZpLa2dvg+amprK1g9E/UmllFJJf8YSCeuZ4fxESyg/h2JGM/1KqURwS/Fb8Hb6zXK7BBNJ6Q2TbQCSDQCs00RWlXIsLqrXK5XU+2U0d6UomEgERdIy2publdGjZi6LBGJDwe2Ld11wqOzUDgCSDYBaolTW5XRIw1Gpr6+kPqGUUv3j68t81xfHqPw8zU7FlbOn0gGfXrbMG7keGrt2i9MIkGwAQEREXGf1By3vSvcnLldDySa/OXZr/e1Ht8ZMf6dXJBy3RYIJZcUC6Slb/OZOa11KiiuWCutR/3BFC4C9kWGJRk1OJLBf8RnEAKqq8cy5019+/c7amsvlKtmUsEKGrkVzg0DMmgiKiETzvwrErAmviBUzdE3bqIkU3URJ8RaGHjVFdC2TVAkxC9USiFlqa64pKt4QTCQHR0c4k8A+pSml6AKAXXf16tUrV67QB04TUGVcjQJwWKXCfJYeUHu4GgXgsAomVNFlJAC1gDkbAABAsgEAACDZAAAAkGwAAABINgAAgGQDAABAsgEAACDZAAAA7AY+qQ9A9Sillh/em715Q6ura+4LNbSfpicAdhdzNgCqZ/nxo6c3vlu9/8fy77/e//abhdm/6AkAkg2Ag+rFzz962k85TzTXHfM4beveD9/TEwAkGwAHVX3LqeW5WXk+JzMPl7Jrzx1r2Ww2tylu7PbXV9pxo+KbKBw8nNr4uTAuV7xxEDtuGPGvDL6HEyDZAKgN7g8vLiyuOldWXr9cePjeuWPdxvqmyIRSSikrFgjELKWUUhMRb9Xu2ET+uImgiBTugLJi6d5twk1x8aB/bGBzdPl7HwgAkg2A6qnzHPf0fObKZh81uJs+/8J7Tnc4dnoVyk+62HEjHzDsuFFIGvb6LI8Rt7cMReIDUdOM6ppmxO0tGyvjjUxYsfTIzrv4hob90WspTi5AsgFQky86mjg1TWtp7fR90NTUtHOx38xYIvatMf+gjKdExMqITxcRkbCeGc7PrITGBuL/LB7aIpHr+VmTiYh3IOpPKqWUSvoz1lvdXW9n7j7sJJhISm+YbAPsk/+gaAGAatJEVpVyLC6q1ytli/sH01O2SMbfP+QbuZYSfSrt78xd2knL6Kg2WigcFBn996ahJbL5CpBfRns1SapEMJHYiwcVHIqNDMTt65xeYB/8+0QLAFSTUlmX0yENR6W+vmyx7pOMlRpP+3RvXyg9nrIy/v5gftv6ahillEoEiofB4ttJKKVU//gb1wS/mT2VDuRniXbijVwPjV27xekFSDYAaozrrP6g5V3p/sTlaigfGPpCMjKSDvV5xdsXkvFxWU8ZfrNocUvJMK9wISkct0WCCWXFAumpt1hokwrrUf9wRQuAvZFhiUZNTjBAsgFQUxrPnDv95dcf/Otzl8tVQV7oFFNCfd7cj6NpX18hZSSsWLp3433VQ8VDO5c1Bkd7c6Oormmapuljoevb5hRDzy03DqdExMxXa9qIz9oy/1NSvCGYSA5yfoG/naaUogsAdt3Vq1evXLlCHzhNQJUxZwOg1qTCfJYecHjx3igAtSaYUCpBG4BDijkbAABAsgEAACDZAAAAkGwAAABINgAAgGQDAABAsgEAACDZAAAA7AY+qQ9A9Sillh/em715Q6ura+4LNbSfpicAdhdzNgCqZ/nxo6c3vlu9/8fy77/e//abhdm/6AkAkg2Ag+rFzz962k85TzTXHfM4beveD9/TEwAkGwAHVX3LqeW5WXk+JzMPl7Jrzx1r2Ww2tylu7PbXVNpxo+KbKKp8mx0rV3h84dTGz4VxueKNu2PHDSP+lcFXegIkGwD7gPvDiwuLq86VldcvFx6+d+5Yt7G+KTKhlFLKigUCMUsppdRExHuYHvtE/qElgiJSeIzKiqV7twk3xcWD/rGBzdHl0PcKINkAOBjqPMc9PZ+5stlHDe6mz7/wntMdjp1ehfJzJ3bcyP/1t+NGIQbY67M8RtzeMhSJD0RNM6prmhG3t2ysSOleW27FMOLxcH5m5X87hHgjE1YsPbLzLr6hYX/0WornD0CyAbD/XnQ0cWqa1tLa6fugqalp52K/mbFE7Ftj/kEZT4mIlRGfLiIiYT0znJ/2CI0NxP9ZPLRFItfzUxoTEe9A1J9USimV9Gesiu9qyV7hLYcQM5rpV0olgluK34K3M/cwdxJMJKU3TLYBKvkPihYAqCZNZFUpx+Kier1Strh/MD1li2T8/UO+kWsp0afS/s7cdZe0jI5qo4XCQZHRf28aWiKbL8/4ZbRXk6RKBBOJyu9qyV4jxUe0RCQQGwr+vw5RueBQbGQgbl/nGQSU+/eJFgCoJqWyLqdDGo5KfX3ZYt0nGSs1nvbp3r5QejxlZfz9hSixvlRFKaUSgeJhsPh2Ekop1T/+xgW72yvdaw8OISJiT6UD+YmonXgj10Nj127xDAJINgD2E9dZ/UHLu9L9icvVUP6veV9IRkbSoT6vePtCMj4u6xHAbxatPCkZ5hWu8oTjtkgwoaxYID213ZIWvzl2a/3tR7fGTH+nd8te2x+ioOwh3iAV1qP+4YoWAHsjwxKNmjyHgB1xNQpAVTWeOXf6y6/fWVtzuVwV/DHvFFNC1725H0fHfFYhAiSsmKFrWm4QiFlWbGDzcCLi9UaGB7VebTQQs/xRXYsWtmwXIhJWyMiX5IqCIiIle5UccSJSdBPlDmHoUVNE1zJJlRCzUC2BmKW25pqi4g3BRHJwdIQnEbATTSlFFwDsuqtXr165coU+cJqAKuNqFIBakwrv+QfdVeEQALbH1SgAtSaYUCpx4A8BYHvM2QAAAJINAADA/sMKYgB74ubNmzThQLh8+TJNwGHCOhsAe6W5uZkm7HNzc3M0AYcMV6MAAADJBgAAgGQDAABAsgEAACDZADiwTp4PBAKB8yfpxFvIZDLpdDqbzdIK1CzeGwWgekmlq60wmJ82b8/Qk123srLy22+/WZb10UcfnT17loagBjFnA6BKnt01zTtPRESe3CHW7KmXL1/+9NNPyWTy6dOndAO1hjkbAH+T3BzO/Py82+0WkfnpydszSyVTOyXFOfPTk7dnGnJ7T0/enllytV/o7nDL/LT5oLGkbGmbXZdqpMFPnz5NpVJnzpz5+OOPm5qaeMaBZAMAVTBrmbcbzge62jpOn5y5K+e72kSe3DHvPttIJK72C11t+VBy8nygq0Nvf3b7rnlHcj8+aOxwy/z0pCUXukvLLNHXA1ANNlcp9eeffz5+/DgYDHo8Hp5tINkAwB5bXFoSaSiMTja3iciTuWebS1wnW9wi0tEd6Mj/xt3YILL07O7kdGN3R3eXyJM7t2ek/cI2ZYsiIu6O7kBHLeYbTdOYswHJBgD2o+1ySUOju2zZM3MpP/nj7ugONN4x7z6rkY61trb29PS0trby5EFNYQUxgH3k1eK8iDS6XJt/ubS0KCLujtMlbwA/eb6rTZ7cMe88kbauC+3yhjJ5dtc0TXNyer5m2ujxeD799NPe3l5iDWoQczYAqmRj3UxbV6Bx2nywTc3SjDXd0t2x6YpSPppMLl7o7ugK5FcCz09nZlt8HW55cufuM5FX0/NtHR3d706bk9PFZZOW6N0dhYmd+enJwz5hc/To0Z6envfff9/h4B9X1ChNKUUXAOy6mzdv8l3f+9/c3Nzly5fpAw4TQj0AACDZAAAAkGwAAABINgAAACQbAABQS3jXN4C9Mjc3RxMAkGwAHAarWTXr1tc0J63Yt5xqtWXepg84ZLgaBWBPKKWOrL2iD/vZkbVXfKIZSDYAUJGTx48fW31BH/azY6svmk/wBeAg2QBABS5e7KlbmT+SXaIV+9ORtaW6lYVLly7RCpBsAKC8xsbG9rZTzYv3HWqVbuy7l3612vzq/un2d1zFXz4KkGwA4I0uXbrU5Dra+t/pemZu9pMja0ut/512N7p6enroBg4fvhETwN76z39+mXn8eOVI06v6E8sOV1Zzimi0peqUQ63Vr7069vrFkdcL/2h/h1gDkg0A/I8WFxd/+eWXuecvHZo4HcSav8daVmWVNJ/wXLp0iYtQINkAAAAcAKyzAQAAJBsAAACSDQAAAMkGAACAZAMAAEg2AAAAJBsAAACSDQAAAMkGAABgs/8DdnSlqumEHGYAAAAASUVORK5CYII=;" vertex="1" parent="1">
          <mxGeometry x="100" y="710" width="810" height="593.28" as="geometry" />
        </mxCell>
      </root>
    </mxGraphModel>
  </diagram>
  <diagram id="gT--2YDwOdIcRShfMM2d" name="Page-2">
    <mxGraphModel dx="2913" dy="1533" grid="1" gridSize="10" guides="1" tooltips="1" connect="1" arrows="1" fold="1" page="1" pageScale="1" pageWidth="827" pageHeight="1169" math="0" shadow="0">
      <root>
        <mxCell id="0" />
        <mxCell id="1" parent="0" />
        <mxCell id="inSB2xpwReKrrI_5uO8y-1" value="User" style="whiteSpace=wrap;html=1;aspect=fixed;" vertex="1" parent="1">
          <mxGeometry x="40" y="30" width="90" height="90" as="geometry" />
        </mxCell>
        <mxCell id="inSB2xpwReKrrI_5uO8y-2" value="" style="endArrow=classic;html=1;rounded=0;" edge="1" parent="1">
          <mxGeometry width="50" height="50" relative="1" as="geometry">
            <mxPoint x="140" y="80" as="sourcePoint" />
            <mxPoint x="220" y="80" as="targetPoint" />
            <Array as="points" />
          </mxGeometry>
        </mxCell>
        <mxCell id="inSB2xpwReKrrI_5uO8y-3" value="LB" style="rhombus;whiteSpace=wrap;html=1;" vertex="1" parent="1">
          <mxGeometry x="220" y="35" width="100" height="95" as="geometry" />
        </mxCell>
        <mxCell id="inSB2xpwReKrrI_5uO8y-8" value="" style="rounded=0;whiteSpace=wrap;html=1;" vertex="1" parent="1">
          <mxGeometry x="630" y="30" width="150" height="340" as="geometry" />
        </mxCell>
        <mxCell id="inSB2xpwReKrrI_5uO8y-19" value="" style="edgeStyle=orthogonalEdgeStyle;rounded=0;orthogonalLoop=1;jettySize=auto;html=1;" edge="1" parent="1" source="inSB2xpwReKrrI_5uO8y-10" target="inSB2xpwReKrrI_5uO8y-15">
          <mxGeometry relative="1" as="geometry" />
        </mxCell>
        <mxCell id="inSB2xpwReKrrI_5uO8y-10" value="Auth Service" style="rounded=0;whiteSpace=wrap;html=1;" vertex="1" parent="1">
          <mxGeometry x="360" y="50" width="120" height="70" as="geometry" />
        </mxCell>
        <mxCell id="inSB2xpwReKrrI_5uO8y-14" value="" style="endArrow=classic;html=1;rounded=0;exitX=1;exitY=0.5;exitDx=0;exitDy=0;entryX=0;entryY=0.5;entryDx=0;entryDy=0;" edge="1" parent="1" source="inSB2xpwReKrrI_5uO8y-3" target="inSB2xpwReKrrI_5uO8y-10">
          <mxGeometry width="50" height="50" relative="1" as="geometry">
            <mxPoint x="440" y="170" as="sourcePoint" />
            <mxPoint x="490" y="120" as="targetPoint" />
          </mxGeometry>
        </mxCell>
        <mxCell id="inSB2xpwReKrrI_5uO8y-15" value="LB" style="rhombus;whiteSpace=wrap;html=1;" vertex="1" parent="1">
          <mxGeometry x="380" y="180" width="80" height="80" as="geometry" />
        </mxCell>
        <mxCell id="inSB2xpwReKrrI_5uO8y-20" value="" style="endArrow=classic;html=1;rounded=0;entryX=0;entryY=0.5;entryDx=0;entryDy=0;" edge="1" parent="1" target="inSB2xpwReKrrI_5uO8y-8">
          <mxGeometry width="50" height="50" relative="1" as="geometry">
            <mxPoint x="460" y="220" as="sourcePoint" />
            <mxPoint x="510" y="170" as="targetPoint" />
          </mxGeometry>
        </mxCell>
        <mxCell id="inSB2xpwReKrrI_5uO8y-21" value="Firebase&lt;div&gt;(Andriod Users)&lt;/div&gt;" style="rounded=0;whiteSpace=wrap;html=1;" vertex="1" parent="1">
          <mxGeometry x="645" y="45" width="120" height="60" as="geometry" />
        </mxCell>
        <mxCell id="inSB2xpwReKrrI_5uO8y-22" value="APNS&lt;div&gt;(Apple users)&lt;/div&gt;" style="rounded=0;whiteSpace=wrap;html=1;" vertex="1" parent="1">
          <mxGeometry x="645" y="140" width="120" height="60" as="geometry" />
        </mxCell>
        <mxCell id="inSB2xpwReKrrI_5uO8y-23" value="Cognito&lt;div&gt;(Web browsers)&lt;/div&gt;" style="rounded=0;whiteSpace=wrap;html=1;" vertex="1" parent="1">
          <mxGeometry x="650" y="250" width="120" height="60" as="geometry" />
        </mxCell>
        <mxCell id="inSB2xpwReKrrI_5uO8y-44" value="User Service" style="rounded=0;whiteSpace=wrap;html=1;" vertex="1" parent="1">
          <mxGeometry x="632.5" y="430" width="150" height="60" as="geometry" />
        </mxCell>
        <mxCell id="inSB2xpwReKrrI_5uO8y-46" value="" style="endArrow=classic;html=1;rounded=0;exitX=0.5;exitY=1;exitDx=0;exitDy=0;entryX=0.5;entryY=0;entryDx=0;entryDy=0;" edge="1" parent="1" source="inSB2xpwReKrrI_5uO8y-8" target="inSB2xpwReKrrI_5uO8y-44">
          <mxGeometry width="50" height="50" relative="1" as="geometry">
            <mxPoint x="530" y="550" as="sourcePoint" />
            <mxPoint x="710" y="420" as="targetPoint" />
            <Array as="points">
              <mxPoint x="705" y="400" />
            </Array>
          </mxGeometry>
        </mxCell>
        <mxCell id="inSB2xpwReKrrI_5uO8y-48" value="" style="endArrow=classic;startArrow=classic;html=1;rounded=0;entryX=-0.018;entryY=0.63;entryDx=0;entryDy=0;entryPerimeter=0;" edge="1" parent="1" target="inSB2xpwReKrrI_5uO8y-44">
          <mxGeometry width="50" height="50" relative="1" as="geometry">
            <mxPoint x="470" y="475" as="sourcePoint" />
            <mxPoint x="520" y="425" as="targetPoint" />
          </mxGeometry>
        </mxCell>
        <mxCell id="inSB2xpwReKrrI_5uO8y-49" value="" style="endArrow=classic;startArrow=classic;html=1;rounded=0;exitX=0;exitY=0.5;exitDx=0;exitDy=0;exitPerimeter=0;" edge="1" parent="1" source="ymKbo5GR6-EM2-r7UJ1W-21">
          <mxGeometry width="50" height="50" relative="1" as="geometry">
            <mxPoint x="414" y="490" as="sourcePoint" />
            <mxPoint x="170" y="490" as="targetPoint" />
            <Array as="points">
              <mxPoint x="170" y="490" />
            </Array>
          </mxGeometry>
        </mxCell>
        <mxCell id="inSB2xpwReKrrI_5uO8y-50" value="DB" style="shape=cylinder3;whiteSpace=wrap;html=1;boundedLbl=1;backgroundOutline=1;size=15;" vertex="1" parent="1">
          <mxGeometry x="110" y="450" width="60" height="80" as="geometry" />
        </mxCell>
        <mxCell id="inSB2xpwReKrrI_5uO8y-55" value="USER" style="swimlane;fontStyle=0;childLayout=stackLayout;horizontal=1;startSize=30;horizontalStack=0;resizeParent=1;resizeParentMax=0;resizeLast=0;collapsible=1;marginBottom=0;whiteSpace=wrap;html=1;" vertex="1" parent="1">
          <mxGeometry x="490" y="30" width="100" height="90" as="geometry" />
        </mxCell>
        <mxCell id="inSB2xpwReKrrI_5uO8y-56" value="User Name&lt;span style=&quot;white-space: pre;&quot;&gt;&#x9;&lt;/span&gt;" style="text;strokeColor=none;fillColor=none;align=left;verticalAlign=middle;spacingLeft=4;spacingRight=4;overflow=hidden;points=[[0,0.5],[1,0.5]];portConstraint=eastwest;rotatable=0;whiteSpace=wrap;html=1;" vertex="1" parent="inSB2xpwReKrrI_5uO8y-55">
          <mxGeometry y="30" width="100" height="30" as="geometry" />
        </mxCell>
        <mxCell id="inSB2xpwReKrrI_5uO8y-57" value="Password" style="text;strokeColor=none;fillColor=none;align=left;verticalAlign=middle;spacingLeft=4;spacingRight=4;overflow=hidden;points=[[0,0.5],[1,0.5]];portConstraint=eastwest;rotatable=0;whiteSpace=wrap;html=1;" vertex="1" parent="inSB2xpwReKrrI_5uO8y-55">
          <mxGeometry y="60" width="100" height="30" as="geometry" />
        </mxCell>
        <mxCell id="inSB2xpwReKrrI_5uO8y-59" value="USER" style="swimlane;fontStyle=0;childLayout=stackLayout;horizontal=1;startSize=30;horizontalStack=0;resizeParent=1;resizeParentMax=0;resizeLast=0;collapsible=1;marginBottom=0;whiteSpace=wrap;html=1;" vertex="1" parent="1">
          <mxGeometry x="632.5" y="500" width="155" height="120" as="geometry" />
        </mxCell>
        <mxCell id="inSB2xpwReKrrI_5uO8y-60" value="NAME" style="text;strokeColor=none;fillColor=none;align=left;verticalAlign=middle;spacingLeft=4;spacingRight=4;overflow=hidden;points=[[0,0.5],[1,0.5]];portConstraint=eastwest;rotatable=0;whiteSpace=wrap;html=1;" vertex="1" parent="inSB2xpwReKrrI_5uO8y-59">
          <mxGeometry y="30" width="155" height="30" as="geometry" />
        </mxCell>
        <mxCell id="inSB2xpwReKrrI_5uO8y-61" value="PHONE NUMBER" style="text;strokeColor=none;fillColor=none;align=left;verticalAlign=middle;spacingLeft=4;spacingRight=4;overflow=hidden;points=[[0,0.5],[1,0.5]];portConstraint=eastwest;rotatable=0;whiteSpace=wrap;html=1;" vertex="1" parent="inSB2xpwReKrrI_5uO8y-59">
          <mxGeometry y="60" width="155" height="30" as="geometry" />
        </mxCell>
        <mxCell id="inSB2xpwReKrrI_5uO8y-62" value="EMAIL" style="text;strokeColor=none;fillColor=none;align=left;verticalAlign=middle;spacingLeft=4;spacingRight=4;overflow=hidden;points=[[0,0.5],[1,0.5]];portConstraint=eastwest;rotatable=0;whiteSpace=wrap;html=1;" vertex="1" parent="inSB2xpwReKrrI_5uO8y-59">
          <mxGeometry y="90" width="155" height="30" as="geometry" />
        </mxCell>
        <mxCell id="ymKbo5GR6-EM2-r7UJ1W-1" value="USER&lt;div&gt;SERVICE&lt;/div&gt;" style="rounded=0;whiteSpace=wrap;html=1;" vertex="1" parent="1">
          <mxGeometry x="30" y="670" width="160" height="80" as="geometry" />
        </mxCell>
        <mxCell id="ymKbo5GR6-EM2-r7UJ1W-2" value="" style="endArrow=classic;html=1;rounded=0;exitX=1;exitY=0.5;exitDx=0;exitDy=0;" edge="1" parent="1" source="ymKbo5GR6-EM2-r7UJ1W-1" target="ymKbo5GR6-EM2-r7UJ1W-10">
          <mxGeometry width="50" height="50" relative="1" as="geometry">
            <mxPoint x="590" y="710" as="sourcePoint" />
            <mxPoint x="250" y="890" as="targetPoint" />
            <Array as="points">
              <mxPoint x="200" y="710" />
            </Array>
          </mxGeometry>
        </mxCell>
        <mxCell id="ymKbo5GR6-EM2-r7UJ1W-3" value="" style="rounded=0;whiteSpace=wrap;html=1;" vertex="1" parent="1">
          <mxGeometry x="525" y="650" width="240" height="560" as="geometry" />
        </mxCell>
        <mxCell id="ymKbo5GR6-EM2-r7UJ1W-4" value="Tweet Service" style="rounded=0;whiteSpace=wrap;html=1;" vertex="1" parent="1">
          <mxGeometry x="550" y="680" width="190" height="80" as="geometry" />
        </mxCell>
        <mxCell id="ymKbo5GR6-EM2-r7UJ1W-5" value="MESSAGING&lt;div&gt;Service&lt;/div&gt;" style="rounded=0;whiteSpace=wrap;html=1;" vertex="1" parent="1">
          <mxGeometry x="550" y="780" width="190" height="80" as="geometry" />
        </mxCell>
        <mxCell id="ymKbo5GR6-EM2-r7UJ1W-6" value="TIMELINE FEED&lt;div&gt;SERVICE&lt;/div&gt;" style="rounded=0;whiteSpace=wrap;html=1;" vertex="1" parent="1">
          <mxGeometry x="550" y="880" width="190" height="90" as="geometry" />
        </mxCell>
        <mxCell id="ymKbo5GR6-EM2-r7UJ1W-8" value="SEARCHING SERVICE" style="rounded=0;whiteSpace=wrap;html=1;" vertex="1" parent="1">
          <mxGeometry x="550" y="990" width="190" height="90" as="geometry" />
        </mxCell>
        <mxCell id="ymKbo5GR6-EM2-r7UJ1W-10" value="LB" style="rhombus;whiteSpace=wrap;html=1;" vertex="1" parent="1">
          <mxGeometry x="240.00000000000023" y="860" width="80" height="80" as="geometry" />
        </mxCell>
        <mxCell id="ymKbo5GR6-EM2-r7UJ1W-11" value="" style="endArrow=classic;html=1;rounded=0;entryX=0;entryY=0.5;entryDx=0;entryDy=0;exitX=1;exitY=0.5;exitDx=0;exitDy=0;" edge="1" parent="1" source="ymKbo5GR6-EM2-r7UJ1W-10" target="ymKbo5GR6-EM2-r7UJ1W-3">
          <mxGeometry width="50" height="50" relative="1" as="geometry">
            <mxPoint x="590" y="870" as="sourcePoint" />
            <mxPoint x="640" y="820" as="targetPoint" />
          </mxGeometry>
        </mxCell>
        <mxCell id="ymKbo5GR6-EM2-r7UJ1W-12" value="Notification Service&lt;div&gt;&lt;br&gt;&lt;/div&gt;" style="rounded=0;whiteSpace=wrap;html=1;" vertex="1" parent="1">
          <mxGeometry x="550" y="1100" width="190" height="90" as="geometry" />
        </mxCell>
        <mxCell id="ymKbo5GR6-EM2-r7UJ1W-15" value="" style="endArrow=classic;html=1;rounded=0;exitX=1;exitY=0.5;exitDx=0;exitDy=0;" edge="1" parent="1" source="ymKbo5GR6-EM2-r7UJ1W-4">
          <mxGeometry width="50" height="50" relative="1" as="geometry">
            <mxPoint x="720" y="820" as="sourcePoint" />
            <mxPoint x="960" y="420" as="targetPoint" />
            <Array as="points">
              <mxPoint x="960" y="720" />
            </Array>
          </mxGeometry>
        </mxCell>
        <mxCell id="ymKbo5GR6-EM2-r7UJ1W-16" value="TWITTER" style="text;html=1;align=center;verticalAlign=middle;resizable=0;points=[];autosize=1;strokeColor=none;fillColor=none;" vertex="1" parent="1">
          <mxGeometry x="610" y="650" width="80" height="30" as="geometry" />
        </mxCell>
        <mxCell id="ymKbo5GR6-EM2-r7UJ1W-17" value="" style="endArrow=classic;html=1;rounded=0;" edge="1" parent="1">
          <mxGeometry width="50" height="50" relative="1" as="geometry">
            <mxPoint x="740" y="810" as="sourcePoint" />
            <mxPoint x="1080" y="810" as="targetPoint" />
          </mxGeometry>
        </mxCell>
        <mxCell id="ymKbo5GR6-EM2-r7UJ1W-18" value="" style="endArrow=classic;html=1;rounded=0;entryX=0;entryY=0.5;entryDx=0;entryDy=0;" edge="1" parent="1" target="I8heqfZ8_ZEfGK60djZR-18">
          <mxGeometry width="50" height="50" relative="1" as="geometry">
            <mxPoint x="740" y="910" as="sourcePoint" />
            <mxPoint x="1040" y="1000" as="targetPoint" />
          </mxGeometry>
        </mxCell>
        <mxCell id="ymKbo5GR6-EM2-r7UJ1W-22" value="" style="endArrow=classic;startArrow=classic;html=1;rounded=0;exitX=0;exitY=0.5;exitDx=0;exitDy=0;exitPerimeter=0;" edge="1" parent="1" target="ymKbo5GR6-EM2-r7UJ1W-21">
          <mxGeometry width="50" height="50" relative="1" as="geometry">
            <mxPoint x="414" y="490" as="sourcePoint" />
            <mxPoint x="170" y="490" as="targetPoint" />
            <Array as="points" />
          </mxGeometry>
        </mxCell>
        <mxCell id="ymKbo5GR6-EM2-r7UJ1W-21" value="Redis&lt;div&gt;Cache&lt;/div&gt;" style="ellipse;whiteSpace=wrap;html=1;" vertex="1" parent="1">
          <mxGeometry x="350" y="450" width="120" height="80" as="geometry" />
        </mxCell>
        <mxCell id="ymKbo5GR6-EM2-r7UJ1W-23" value="Chat&lt;div&gt;DB&lt;/div&gt;&lt;div&gt;&lt;br&gt;&lt;/div&gt;" style="shape=cylinder3;whiteSpace=wrap;html=1;boundedLbl=1;backgroundOutline=1;size=15;" vertex="1" parent="1">
          <mxGeometry x="1080" y="720" width="120" height="160" as="geometry" />
        </mxCell>
        <mxCell id="I8heqfZ8_ZEfGK60djZR-2" value="Tweet&lt;div&gt;Ingesion&lt;/div&gt;&lt;div&gt;Searvice&lt;/div&gt;" style="rounded=1;whiteSpace=wrap;html=1;" vertex="1" parent="1">
          <mxGeometry x="870" y="330" width="230" height="90" as="geometry" />
        </mxCell>
        <mxCell id="I8heqfZ8_ZEfGK60djZR-3" value="" style="endArrow=classic;html=1;rounded=0;exitX=1;exitY=0.5;exitDx=0;exitDy=0;" edge="1" parent="1" source="I8heqfZ8_ZEfGK60djZR-2">
          <mxGeometry width="50" height="50" relative="1" as="geometry">
            <mxPoint x="1430" y="640" as="sourcePoint" />
            <mxPoint x="1240" y="375" as="targetPoint" />
          </mxGeometry>
        </mxCell>
        <mxCell id="I8heqfZ8_ZEfGK60djZR-5" value="Fanout&lt;div&gt;Service&lt;/div&gt;" style="rounded=0;whiteSpace=wrap;html=1;" vertex="1" parent="1">
          <mxGeometry x="1240" y="340" width="130" height="100" as="geometry" />
        </mxCell>
        <mxCell id="I8heqfZ8_ZEfGK60djZR-7" value="Cassandra&lt;div&gt;DB&lt;/div&gt;" style="shape=cylinder3;whiteSpace=wrap;html=1;boundedLbl=1;backgroundOutline=1;size=15;" vertex="1" parent="1">
          <mxGeometry x="1480" y="320" width="100" height="120" as="geometry" />
        </mxCell>
        <mxCell id="I8heqfZ8_ZEfGK60djZR-8" value="" style="endArrow=classic;startArrow=classic;html=1;rounded=0;entryX=0;entryY=0.5;entryDx=0;entryDy=0;entryPerimeter=0;" edge="1" parent="1" target="I8heqfZ8_ZEfGK60djZR-7">
          <mxGeometry width="50" height="50" relative="1" as="geometry">
            <mxPoint x="1370" y="400" as="sourcePoint" />
            <mxPoint x="1420" y="350" as="targetPoint" />
          </mxGeometry>
        </mxCell>
        <mxCell id="I8heqfZ8_ZEfGK60djZR-9" value="" style="endArrow=classic;html=1;rounded=0;exitX=1;exitY=0.5;exitDx=0;exitDy=0;exitPerimeter=0;" edge="1" parent="1" source="ymKbo5GR6-EM2-r7UJ1W-23">
          <mxGeometry width="50" height="50" relative="1" as="geometry">
            <mxPoint x="1310" y="800" as="sourcePoint" />
            <mxPoint x="1420" y="800" as="targetPoint" />
          </mxGeometry>
        </mxCell>
        <mxCell id="I8heqfZ8_ZEfGK60djZR-10" value="KAFKA" style="shape=parallelogram;perimeter=parallelogramPerimeter;whiteSpace=wrap;html=1;fixedSize=1;" vertex="1" parent="1">
          <mxGeometry x="1410" y="770" width="120" height="60" as="geometry" />
        </mxCell>
        <mxCell id="I8heqfZ8_ZEfGK60djZR-12" value="Notificstion Service" style="rounded=1;whiteSpace=wrap;html=1;" vertex="1" parent="1">
          <mxGeometry x="1365" y="1070" width="210" height="110" as="geometry" />
        </mxCell>
        <mxCell id="I8heqfZ8_ZEfGK60djZR-13" value="User&lt;div&gt;DB&lt;/div&gt;" style="shape=cylinder3;whiteSpace=wrap;html=1;boundedLbl=1;backgroundOutline=1;size=15;" vertex="1" parent="1">
          <mxGeometry x="1050" y="30" width="210" height="170" as="geometry" />
        </mxCell>
        <mxCell id="I8heqfZ8_ZEfGK60djZR-15" value="" style="endArrow=classic;html=1;rounded=0;exitX=0.5;exitY=0;exitDx=0;exitDy=0;entryX=0.59;entryY=0.994;entryDx=0;entryDy=0;entryPerimeter=0;" edge="1" parent="1" source="I8heqfZ8_ZEfGK60djZR-2" target="I8heqfZ8_ZEfGK60djZR-13">
          <mxGeometry width="50" height="50" relative="1" as="geometry">
            <mxPoint x="800" y="440" as="sourcePoint" />
            <mxPoint x="850" y="390" as="targetPoint" />
          </mxGeometry>
        </mxCell>
        <mxCell id="I8heqfZ8_ZEfGK60djZR-16" value="" style="endArrow=classic;html=1;rounded=0;exitX=0.5;exitY=1;exitDx=0;exitDy=0;entryX=0.5;entryY=0;entryDx=0;entryDy=0;" edge="1" parent="1" source="I8heqfZ8_ZEfGK60djZR-5" target="I8heqfZ8_ZEfGK60djZR-18">
          <mxGeometry width="50" height="50" relative="1" as="geometry">
            <mxPoint x="1280" y="870" as="sourcePoint" />
            <mxPoint x="1270" y="970" as="targetPoint" />
          </mxGeometry>
        </mxCell>
        <mxCell id="I8heqfZ8_ZEfGK60djZR-18" value="LB" style="rhombus;whiteSpace=wrap;html=1;" vertex="1" parent="1">
          <mxGeometry x="1130" y="950" width="160" height="165" as="geometry" />
        </mxCell>
        <mxCell id="I8heqfZ8_ZEfGK60djZR-20" value="KAFKA" style="shape=parallelogram;perimeter=parallelogramPerimeter;whiteSpace=wrap;html=1;fixedSize=1;" vertex="1" parent="1">
          <mxGeometry x="1150" y="1200" width="120" height="60" as="geometry" />
        </mxCell>
        <mxCell id="I8heqfZ8_ZEfGK60djZR-21" value="" style="endArrow=classic;html=1;rounded=0;exitX=0.5;exitY=1;exitDx=0;exitDy=0;entryX=0.5;entryY=0;entryDx=0;entryDy=0;" edge="1" parent="1" source="I8heqfZ8_ZEfGK60djZR-18" target="I8heqfZ8_ZEfGK60djZR-20">
          <mxGeometry width="50" height="50" relative="1" as="geometry">
            <mxPoint x="800" y="1040" as="sourcePoint" />
            <mxPoint x="1520" y="1180" as="targetPoint" />
          </mxGeometry>
        </mxCell>
        <mxCell id="I8heqfZ8_ZEfGK60djZR-28" value="" style="rounded=0;whiteSpace=wrap;html=1;" vertex="1" parent="1">
          <mxGeometry x="730" y="1350" width="820" height="180" as="geometry" />
        </mxCell>
        <mxCell id="I8heqfZ8_ZEfGK60djZR-29" value="USER&lt;div&gt;PREFERANCE DB&lt;/div&gt;" style="shape=cylinder3;whiteSpace=wrap;html=1;boundedLbl=1;backgroundOutline=1;size=15;" vertex="1" parent="1">
          <mxGeometry x="970" y="1390" width="120" height="80" as="geometry" />
        </mxCell>
        <mxCell id="I8heqfZ8_ZEfGK60djZR-30" value="FOLLOWER&amp;nbsp;&lt;div&gt;DB&lt;/div&gt;" style="shape=cylinder3;whiteSpace=wrap;html=1;boundedLbl=1;backgroundOutline=1;size=15;" vertex="1" parent="1">
          <mxGeometry x="1160" y="1390" width="120" height="80" as="geometry" />
        </mxCell>
        <mxCell id="I8heqfZ8_ZEfGK60djZR-32" value="TRENDING SERVICES&lt;div&gt;DB&lt;/div&gt;" style="shape=cylinder3;whiteSpace=wrap;html=1;boundedLbl=1;backgroundOutline=1;size=15;" vertex="1" parent="1">
          <mxGeometry x="1350" y="1380" width="150" height="80" as="geometry" />
        </mxCell>
        <mxCell id="I8heqfZ8_ZEfGK60djZR-34" value="Promotions&lt;div&gt;DB&lt;/div&gt;" style="shape=cylinder3;whiteSpace=wrap;html=1;boundedLbl=1;backgroundOutline=1;size=15;" vertex="1" parent="1">
          <mxGeometry x="765" y="1390" width="135" height="100" as="geometry" />
        </mxCell>
        <mxCell id="I8heqfZ8_ZEfGK60djZR-35" value="" style="endArrow=classic;html=1;rounded=0;entryX=0.588;entryY=-0.028;entryDx=0;entryDy=0;entryPerimeter=0;" edge="1" parent="1" target="I8heqfZ8_ZEfGK60djZR-28">
          <mxGeometry width="50" height="50" relative="1" as="geometry">
            <mxPoint x="1220" y="1260" as="sourcePoint" />
            <mxPoint x="850" y="1390" as="targetPoint" />
          </mxGeometry>
        </mxCell>
        <mxCell id="I8heqfZ8_ZEfGK60djZR-36" value="&lt;font style=&quot;font-size: 19px;&quot;&gt;TIMELINE SEGMENTATION&lt;/font&gt;" style="text;html=1;align=center;verticalAlign=middle;resizable=0;points=[];autosize=1;strokeColor=none;fillColor=none;" vertex="1" parent="1">
          <mxGeometry x="990" y="1350" width="270" height="40" as="geometry" />
        </mxCell>
        <mxCell id="I8heqfZ8_ZEfGK60djZR-37" value="" style="endArrow=classic;html=1;rounded=0;entryX=0.41;entryY=0.008;entryDx=0;entryDy=0;entryPerimeter=0;" edge="1" parent="1" target="I8heqfZ8_ZEfGK60djZR-38">
          <mxGeometry width="50" height="50" relative="1" as="geometry">
            <mxPoint x="520" y="1050" as="sourcePoint" />
            <mxPoint x="280" y="1420" as="targetPoint" />
            <Array as="points">
              <mxPoint x="280" y="1060" />
            </Array>
          </mxGeometry>
        </mxCell>
        <mxCell id="I8heqfZ8_ZEfGK60djZR-38" value="GEO LOCATION&lt;div&gt;SERVICE&lt;/div&gt;" style="rounded=0;whiteSpace=wrap;html=1;" vertex="1" parent="1">
          <mxGeometry x="200" y="1430" width="200" height="130" as="geometry" />
        </mxCell>
        <mxCell id="I8heqfZ8_ZEfGK60djZR-39" value="" style="rounded=0;whiteSpace=wrap;html=1;" vertex="1" parent="1">
          <mxGeometry x="500" y="1440" width="120" height="60" as="geometry" />
        </mxCell>
        <mxCell id="I8heqfZ8_ZEfGK60djZR-40" value="" style="rounded=0;whiteSpace=wrap;html=1;" vertex="1" parent="1">
          <mxGeometry x="530" y="1450" width="120" height="70" as="geometry" />
        </mxCell>
        <mxCell id="I8heqfZ8_ZEfGK60djZR-41" value="REDIS&lt;div&gt;CLUSTER&lt;/div&gt;" style="rounded=0;whiteSpace=wrap;html=1;" vertex="1" parent="1">
          <mxGeometry x="550" y="1480" width="120" height="60" as="geometry" />
        </mxCell>
        <mxCell id="I8heqfZ8_ZEfGK60djZR-42" value="" style="endArrow=classic;html=1;rounded=0;entryX=0;entryY=0.5;entryDx=0;entryDy=0;exitX=1;exitY=0.5;exitDx=0;exitDy=0;" edge="1" parent="1" source="I8heqfZ8_ZEfGK60djZR-38" target="I8heqfZ8_ZEfGK60djZR-39">
          <mxGeometry width="50" height="50" relative="1" as="geometry">
            <mxPoint x="870" y="1660" as="sourcePoint" />
            <mxPoint x="470" y="1715" as="targetPoint" />
          </mxGeometry>
        </mxCell>
        <mxCell id="I8heqfZ8_ZEfGK60djZR-43" value="" style="endArrow=classic;html=1;rounded=0;exitX=1;exitY=0.25;exitDx=0;exitDy=0;entryX=0;entryY=0.5;entryDx=0;entryDy=0;" edge="1" parent="1" source="I8heqfZ8_ZEfGK60djZR-41" target="I8heqfZ8_ZEfGK60djZR-28">
          <mxGeometry width="50" height="50" relative="1" as="geometry">
            <mxPoint x="800" y="1440" as="sourcePoint" />
            <mxPoint x="770" y="1710" as="targetPoint" />
          </mxGeometry>
        </mxCell>
        <mxCell id="I8heqfZ8_ZEfGK60djZR-45" value="" style="edgeStyle=none;orthogonalLoop=1;jettySize=auto;html=1;rounded=0;exitX=0.5;exitY=1;exitDx=0;exitDy=0;entryX=0.5;entryY=0;entryDx=0;entryDy=0;" edge="1" parent="1" source="I8heqfZ8_ZEfGK60djZR-10" target="I8heqfZ8_ZEfGK60djZR-12">
          <mxGeometry width="100" relative="1" as="geometry">
            <mxPoint x="1440" y="940" as="sourcePoint" />
            <mxPoint x="1460" y="970" as="targetPoint" />
            <Array as="points" />
          </mxGeometry>
        </mxCell>
        <mxCell id="I8heqfZ8_ZEfGK60djZR-47" value="" style="endArrow=classic;html=1;rounded=0;exitX=1.021;exitY=0.891;exitDx=0;exitDy=0;exitPerimeter=0;" edge="1" parent="1" source="ymKbo5GR6-EM2-r7UJ1W-3">
          <mxGeometry width="50" height="50" relative="1" as="geometry">
            <mxPoint x="780" y="1150" as="sourcePoint" />
            <mxPoint x="1320" y="790" as="targetPoint" />
            <Array as="points">
              <mxPoint x="1330" y="1140" />
            </Array>
          </mxGeometry>
        </mxCell>
        <mxCell id="I8heqfZ8_ZEfGK60djZR-49" style="edgeStyle=orthogonalEdgeStyle;rounded=0;orthogonalLoop=1;jettySize=auto;html=1;exitX=0.5;exitY=0;exitDx=0;exitDy=0;entryX=0.25;entryY=0;entryDx=0;entryDy=0;" edge="1" parent="1" source="I8heqfZ8_ZEfGK60djZR-20" target="I8heqfZ8_ZEfGK60djZR-20">
          <mxGeometry relative="1" as="geometry" />
        </mxCell>
      </root>
    </mxGraphModel>
  </diagram>
</mxfile>
